<svg version="1.1" viewBox="0.0 0.0 96.0 67.1994750656168" fill="none" stroke="none" stroke-linecap="square" stroke-miterlimit="10" xmlns:xlink="http://www.w3.org/1999/xlink" xmlns="http://www.w3.org/2000/svg"><clipPath id="p1.0"><path d="m0 0l96.0 0l0 67.19948l-96.0 0l0 -67.19948z" clip-rule="nonzero"/></clipPath><g clip-path="url(#p1.0)"><path fill="none" d="m0 0l96.0 0l0 67.19948l-96.0 0z" fill-rule="evenodd"/><path fill="#000000" d="m91.094246 53.978493c-0.8382492 0 -1.5605392 0.24881744 -2.166893 0.74645233c-0.60824585 0.4976349 -0.9836502 1.1439896 -1.1262131 1.9390602l6.5862045 0c-0.14826202 -0.8065109 -0.5246124 -1.4557266 -1.1290665 -1.9476395c-0.6044464 -0.49191666 -1.3257904 -0.7378731 -2.164032 -0.7378731zm0 -0.7292938c1.1404648 0 2.0975113 0.37465668 2.8711243 1.12397c0.7717209 0.74931335 1.1575775 1.6473427 1.1575775 2.6940918c0 1.1497078 -0.4115219 2.1297226 -1.2345581 2.9400482c-0.8249359 0.8084183 -1.8532562 1.2126274 -3.0849686 1.2126274c-0.7355957 0 -1.4521942 -0.123931885 -2.1497803 -0.37179565c-0.6994858 -0.24977112 -1.1860809 -0.5176544 -1.4597931 -0.8036537c-0.09123993 -0.0915184 -0.13685608 -0.18589783 -0.13685608 -0.28313446c0 -0.09724045 0.034210205 -0.18113327 0.102638245 -0.25167847c0.06842804 -0.072452545 0.14826202 -0.10867691 0.23950195 -0.10867691c0.079826355 0 0.17391968 0.04289627 0.2822647 0.12869644c0.37065125 0.29171753 0.8496475 0.5262337 1.4369888 0.70355225c0.5873413 0.17731857 1.1490173 0.26597977 1.6850357 0.26597977c0.96369934 0 1.7724838 -0.28409195 2.4263458 -0.85227203c0.6519699 -0.57008743 1.0406799 -1.3213081 1.1661301 -2.2536583l-7.3218 0c-0.011405945 -1.2240639 0.3620987 -2.2202873 1.1205063 -2.9886665c0.7584152 -0.77028656 1.7249603 -1.1554298 2.899643 -1.1554298z" fill-rule="evenodd"/><path fill="#000000" d="m69.52229 53.978493c-0.8325424 0 -1.5595856 0.31650543 -2.1811447 0.94950867c-0.6215515 0.6311035 -0.9323273 1.4013863 -0.9323273 2.3108559c0 0.9094734 0.31077576 1.6807098 0.9323273 2.313717c0.62155914 0.6310997 1.3486023 0.94665146 2.1811447 0.94665146c0.8325424 0 1.5595932 -0.31555176 2.1811447 -0.94665146c0.62155914 -0.63300705 0.9323349 -1.4042435 0.9323349 -2.313717c0 -0.9094696 -0.31077576 -1.6797523 -0.9323349 -2.3108559c-0.6215515 -0.63300323 -1.3486023 -0.94950867 -2.1811447 -0.94950867zm4.8070755 -3.8094788c0.17106628 0 0.29367065 0.03432083 0.36779785 0.10295868c0.07413483 0.06863785 0.111198425 0.15443802 0.111198425 0.2573967c0 0.108680725 -0.0370636 0.1973381 -0.111198425 0.26597595c-0.0741272 0.06864166 -0.19673157 0.10295868 -0.36779785 0.10295868l-0.9665451 0l0 9.317783l0.9665451 0c0.17106628 0 0.29367065 0.033367157 0.36779785 0.100097656c0.07413483 0.064826965 0.111198425 0.15158081 0.111198425 0.26025772c0 0.10295868 -0.0370636 0.18875885 -0.111198425 0.2573967c-0.0741272 0.06864166 -0.19673157 0.10295868 -0.36779785 0.10295868l-1.6850433 0l0 -1.4156837c-0.8382416 1.1325493 -1.8846207 1.698822 -3.1391373 1.698822c-1.0321198 0 -1.9254913 -0.38895416 -2.6800995 -1.1668663c-0.7565079 -0.77791214 -1.1347656 -1.7274246 -1.1347656 -2.8485298c0 -1.1096687 0.37350464 -2.0458336 1.1205063 -2.8084908c0.7470093 -0.7645645 1.6451263 -1.1468506 2.6943588 -1.1468506c1.2260056 0 2.2723846 0.56627655 3.1391373 1.698822l0 -4.779007z" fill-rule="evenodd"/><path fill="#000000" d="m49.10507 57.06726c-0.4162674 0 -0.8125801 0.022880554 -1.1889343 0.06863785c-0.37635803 0.04576111 -0.73275375 0.11725998 -1.069191 0.21450043l0 1.5872803c0.56453323 0.543396 1.1138573 0.93997574 1.6479759 1.1897469c0.53221893 0.24786377 1.1091042 0.37179947 1.7306595 0.37179947c0.6500664 0 1.1452217 -0.14871979 1.4854622 -0.44615555c0.33833694 -0.29743958 0.5075073 -0.6635132 0.5075073 -1.0982285c0 -0.4690361 -0.22239304 -0.87229156 -0.6671753 -1.2097702c-0.5873413 -0.45187378 -1.4027748 -0.67781067 -2.4463043 -0.67781067zm-0.10264206 -3.8180618c0.4561882 0 1.1290665 0.120121 2.018631 0.3603592c0.5645294 0.14871597 0.8867111 0.26597595 0.9665451 0.35177612c0.057022095 0.05719757 0.08553314 0.13441849 0.08553314 0.23165512c0 0.10295868 -0.032310486 0.18875885 -0.09693909 0.2574005c-0.066524506 0.06863785 -0.14540863 0.10295868 -0.23664474 0.10295868c-0.051322937 0 -0.16822052 -0.0286026 -0.35069656 -0.08580017c-1.0093117 -0.32603836 -1.7933846 -0.48905563 -2.3522148 -0.48905563c-0.72989655 0 -1.2773209 0.14585876 -1.642273 0.4375763c-0.36494827 0.29171753 -0.5474243 0.6349144 -0.5474243 1.0295868l0 1.1668701c0.45048523 -0.0915184 0.869606 -0.15825272 1.2573662 -0.20019913c0.38776016 -0.04385376 0.74700546 -0.06578064 1.0777435 -0.06578064c1.2260017 0 2.1583328 0.26025772 2.796997 0.78077316c0.63866043 0.52051544 0.95799255 1.1296883 0.95799255 1.8275223c0 0.6349106 -0.24235153 1.1716309 -0.7270508 1.6101608c-0.48469543 0.43662262 -1.1575737 0.6549339 -2.0186272 0.6549339c-1.1860847 0 -2.3008919 -0.4404335 -3.3444214 -1.3213043l0 1.038166l-1.6850395 0c-0.17677307 0 -0.30222702 -0.034317017 -0.37635422 -0.10295868c-0.07413101 -0.06863785 -0.111198425 -0.15443802 -0.111198425 -0.2573967c0 -0.10867691 0.037067413 -0.19543076 0.111198425 -0.26025772c0.0741272 -0.0667305 0.19958115 -0.100097656 0.37635422 -0.100097656l0.95799255 0l0 -4.7704315c0 -0.56627274 0.25375366 -1.0734406 0.761261 -1.5215034c0.5075073 -0.44996643 1.2145996 -0.67495346 2.1212692 -0.67495346z" fill-rule="evenodd"/><path fill="#000000" d="m27.935135 53.2492c0.8382454 0 1.5595913 0.18208694 2.1640377 0.546257c0.6044483 0.36226273 0.90667343 0.8522682 0.90667343 1.4700241c0 0.34319687 -0.10834503 0.6635132 -0.3250332 0.96094894c-0.21669006 0.29743576 -0.51891327 0.52051544 -0.90667343 0.6692314c-0.38775826 0.14871979 -1.0273705 0.2688408 -1.9188366 0.3603592c-0.89336777 0.0915184 -1.5738449 0.27169418 -2.0414371 0.540535c-0.46188927 0.26883698 -0.69283485 0.6263313 -0.69283485 1.0724869c0 0.38895416 0.2280941 0.7578926 0.6842804 1.1068077c0.4561882 0.3489151 1.1518726 0.52337646 2.087057 0.52337646c0.63295937 0 1.1680279 -0.08961487 1.6052074 -0.26883698c0.43527985 -0.18113327 0.75271034 -0.4089775 0.9522915 -0.6835327c0.1311531 -0.17731857 0.19673157 -0.39753723 0.19673157 -0.660656c0 -0.12011719 0.03611374 -0.21545029 0.108343124 -0.28599548c0.070329666 -0.072452545 0.15681458 -0.108680725 0.25945663 -0.108680725c0.10834503 0 0.1957798 0.037181854 0.26230812 0.11154175c0.06462479 0.07435608 0.09693909 0.1973381 0.09693909 0.36893463l0 1.4843254c0 0.17159653 -0.03421402 0.29457474 -0.10264206 0.36893463c-0.06842804 0.074359894 -0.15396309 0.11153793 -0.25660515 0.11153793c-0.07413101 0 -0.14065742 -0.020019531 -0.19958115 -0.060058594c-0.060825348 -0.040039062 -0.10264206 -0.08865738 -0.12545204 -0.14585876c-0.022809982 -0.05719757 -0.03421402 -0.1830368 -0.03421402 -0.3775139c-0.7241974 0.577713 -1.6536789 0.8665695 -2.7884445 0.8665695c-1.1347656 0 -1.9958172 -0.23833084 -2.5831585 -0.7149925c-0.5873413 -0.47856903 -0.88101196 -1.0238686 -0.88101196 -1.6359024c0 -0.41183472 0.13590622 -0.79507065 0.40771675 -1.1497078c0.26991272 -0.35463715 0.6814308 -0.6320534 1.2345562 -0.8322525c0.38776016 -0.1372757 1.080595 -0.26025772 2.0785027 -0.36893463c0.7641144 -0.08580017 1.2830276 -0.20877838 1.5567398 -0.36893463c0.3991642 -0.22879791 0.59874535 -0.5147972 0.59874535 -0.8579941c0 -0.303154 -0.16821861 -0.577713 -0.50465775 -0.82366943c-0.44478226 -0.32603836 -1.0691872 -0.48905563 -1.8732185 -0.48905563c-0.76981544 0 -1.3885193 0.16016006 -1.8561115 0.48047638c-0.31933022 0.22307587 -0.4961033 0.50621414 -0.5303173 0.849411c-0.0114040375 0.14299774 -0.049419403 0.24595642 -0.1140461 0.30887604c-0.06652641 0.06291962 -0.14826012 0.094379425 -0.24520111 0.094379425c-0.108343124 0 -0.19672966 -0.037181854 -0.2651577 -0.11153793c-0.06842804 -0.074359894 -0.10264206 -0.1973381 -0.10264206 -0.36893845l0 -1.235508c0 -0.17731476 0.03421402 -0.303154 0.10264206 -0.3775139c0.06842804 -0.074359894 0.15681458 -0.11153793 0.2651577 -0.11153793c0.10264206 0 0.18817711 0.03717804 0.25660515 0.11153793c0.06842804 0.074359894 0.10264206 0.19447708 0.10264206 0.36035538c0.6215553 -0.4861946 1.4284363 -0.7292938 2.4206429 -0.7292938z" fill-rule="evenodd"/><path fill="#000000" d="m6.996146 53.978493c-0.83824396 0 -1.5605392 0.24881744 -2.1668887 0.74645233c-0.6082487 0.4976349 -0.98365355 1.1439896 -1.1262121 1.9390602l6.586202 0c-0.14826107 -0.8065109 -0.5246153 -1.4557266 -1.1290636 -1.9476395c-0.60444736 -0.49191666 -1.3257937 -0.7378731 -2.1640377 -0.7378731zm0 -0.7292938c1.1404676 0 2.0975113 0.37465668 2.871128 1.12397c0.7717171 0.74931335 1.1575747 1.6473427 1.1575747 2.6940918c0 1.1497078 -0.4115181 2.1297226 -1.2345562 2.9400482c-0.8249378 0.8084183 -1.8532605 1.2126274 -3.0849657 1.2126274c-0.7356019 0 -1.4521947 -0.123931885 -2.1497817 -0.37179565c-0.69948626 -0.24977112 -1.1860867 -0.5176544 -1.459799 -0.8036537c-0.09123731 -0.0915184 -0.13685608 -0.18589783 -0.13685608 -0.28313446c0 -0.09724045 0.03421402 -0.18113327 0.10264206 -0.25167847c0.06842804 -0.072452545 0.14826083 -0.10867691 0.23949838 -0.10867691c0.07983279 0 0.17392135 0.04289627 0.28226566 0.12869644c0.3706522 0.29171753 0.8496485 0.5262337 1.4369893 0.70355225c0.5873413 0.17731857 1.1490216 0.26597977 1.6850414 0.26597977c0.9636955 0 1.7724781 -0.28409195 2.4263449 -0.85227203c0.65196896 -0.57008743 1.0406771 -1.3213081 1.1661291 -2.2536583l-7.321804 0c-0.011404753 -1.2240639 0.36209846 -2.2202873 1.1205099 -2.9886665c0.75841093 -0.77028656 1.7249575 -1.1554298 2.8996391 -1.1554298z" fill-rule="evenodd"/><path stroke="#000000" stroke-width="1.0" stroke-linejoin="round" stroke-linecap="butt" d="m91.094246 53.978493c-0.8382492 0 -1.5605392 0.24881744 -2.166893 0.74645233c-0.60824585 0.4976349 -0.9836502 1.1439896 -1.1262131 1.9390602l6.5862045 0c-0.14826202 -0.8065109 -0.5246124 -1.4557266 -1.1290665 -1.9476395c-0.6044464 -0.49191666 -1.3257904 -0.7378731 -2.164032 -0.7378731zm0 -0.7292938c1.1404648 0 2.0975113 0.37465668 2.8711243 1.12397c0.7717209 0.74931335 1.1575775 1.6473427 1.1575775 2.6940918c0 1.1497078 -0.4115219 2.1297226 -1.2345581 2.9400482c-0.8249359 0.8084183 -1.8532562 1.2126274 -3.0849686 1.2126274c-0.7355957 0 -1.4521942 -0.123931885 -2.1497803 -0.37179565c-0.6994858 -0.24977112 -1.1860809 -0.5176544 -1.4597931 -0.8036537c-0.09123993 -0.0915184 -0.13685608 -0.18589783 -0.13685608 -0.28313446c0 -0.09724045 0.034210205 -0.18113327 0.102638245 -0.25167847c0.06842804 -0.072452545 0.14826202 -0.10867691 0.23950195 -0.10867691c0.079826355 0 0.17391968 0.04289627 0.2822647 0.12869644c0.37065125 0.29171753 0.8496475 0.5262337 1.4369888 0.70355225c0.5873413 0.17731857 1.1490173 0.26597977 1.6850357 0.26597977c0.96369934 0 1.7724838 -0.28409195 2.4263458 -0.85227203c0.6519699 -0.57008743 1.0406799 -1.3213081 1.1661301 -2.2536583l-7.3218 0c-0.011405945 -1.2240639 0.3620987 -2.2202873 1.1205063 -2.9886665c0.7584152 -0.77028656 1.7249603 -1.1554298 2.899643 -1.1554298z" fill-rule="evenodd"/><path stroke="#000000" stroke-width="1.0" stroke-linejoin="round" stroke-linecap="butt" d="m69.52229 53.978493c-0.8325424 0 -1.5595856 0.31650543 -2.1811447 0.94950867c-0.6215515 0.6311035 -0.9323273 1.4013863 -0.9323273 2.3108559c0 0.9094734 0.31077576 1.6807098 0.9323273 2.313717c0.62155914 0.6310997 1.3486023 0.94665146 2.1811447 0.94665146c0.8325424 0 1.5595932 -0.31555176 2.1811447 -0.94665146c0.62155914 -0.63300705 0.9323349 -1.4042435 0.9323349 -2.313717c0 -0.9094696 -0.31077576 -1.6797523 -0.9323349 -2.3108559c-0.6215515 -0.63300323 -1.3486023 -0.94950867 -2.1811447 -0.94950867zm4.8070755 -3.8094788c0.17106628 0 0.29367065 0.03432083 0.36779785 0.10295868c0.07413483 0.06863785 0.111198425 0.15443802 0.111198425 0.2573967c0 0.108680725 -0.0370636 0.1973381 -0.111198425 0.26597595c-0.0741272 0.06864166 -0.19673157 0.10295868 -0.36779785 0.10295868l-0.9665451 0l0 9.317783l0.9665451 0c0.17106628 0 0.29367065 0.033367157 0.36779785 0.100097656c0.07413483 0.064826965 0.111198425 0.15158081 0.111198425 0.26025772c0 0.10295868 -0.0370636 0.18875885 -0.111198425 0.2573967c-0.0741272 0.06864166 -0.19673157 0.10295868 -0.36779785 0.10295868l-1.6850433 0l0 -1.4156837c-0.8382416 1.1325493 -1.8846207 1.698822 -3.1391373 1.698822c-1.0321198 0 -1.9254913 -0.38895416 -2.6800995 -1.1668663c-0.7565079 -0.77791214 -1.1347656 -1.7274246 -1.1347656 -2.8485298c0 -1.1096687 0.37350464 -2.0458336 1.1205063 -2.8084908c0.7470093 -0.7645645 1.6451263 -1.1468506 2.6943588 -1.1468506c1.2260056 0 2.2723846 0.56627655 3.1391373 1.698822l0 -4.779007z" fill-rule="evenodd"/><path stroke="#000000" stroke-width="1.0" stroke-linejoin="round" stroke-linecap="butt" d="m49.10507 57.06726c-0.4162674 0 -0.8125801 0.022880554 -1.1889343 0.06863785c-0.37635803 0.04576111 -0.73275375 0.11725998 -1.069191 0.21450043l0 1.5872803c0.56453323 0.543396 1.1138573 0.93997574 1.6479759 1.1897469c0.53221893 0.24786377 1.1091042 0.37179947 1.7306595 0.37179947c0.6500664 0 1.1452217 -0.14871979 1.4854622 -0.44615555c0.33833694 -0.29743958 0.5075073 -0.6635132 0.5075073 -1.0982285c0 -0.4690361 -0.22239304 -0.87229156 -0.6671753 -1.2097702c-0.5873413 -0.45187378 -1.4027748 -0.67781067 -2.4463043 -0.67781067zm-0.10264206 -3.8180618c0.4561882 0 1.1290665 0.120121 2.018631 0.3603592c0.5645294 0.14871597 0.8867111 0.26597595 0.9665451 0.35177612c0.057022095 0.05719757 0.08553314 0.13441849 0.08553314 0.23165512c0 0.10295868 -0.032310486 0.18875885 -0.09693909 0.2574005c-0.066524506 0.06863785 -0.14540863 0.10295868 -0.23664474 0.10295868c-0.051322937 0 -0.16822052 -0.0286026 -0.35069656 -0.08580017c-1.0093117 -0.32603836 -1.7933846 -0.48905563 -2.3522148 -0.48905563c-0.72989655 0 -1.2773209 0.14585876 -1.642273 0.4375763c-0.36494827 0.29171753 -0.5474243 0.6349144 -0.5474243 1.0295868l0 1.1668701c0.45048523 -0.0915184 0.869606 -0.15825272 1.2573662 -0.20019913c0.38776016 -0.04385376 0.74700546 -0.06578064 1.0777435 -0.06578064c1.2260017 0 2.1583328 0.26025772 2.796997 0.78077316c0.63866043 0.52051544 0.95799255 1.1296883 0.95799255 1.8275223c0 0.6349106 -0.24235153 1.1716309 -0.7270508 1.6101608c-0.48469543 0.43662262 -1.1575737 0.6549339 -2.0186272 0.6549339c-1.1860847 0 -2.3008919 -0.4404335 -3.3444214 -1.3213043l0 1.038166l-1.6850395 0c-0.17677307 0 -0.30222702 -0.034317017 -0.37635422 -0.10295868c-0.07413101 -0.06863785 -0.111198425 -0.15443802 -0.111198425 -0.2573967c0 -0.10867691 0.037067413 -0.19543076 0.111198425 -0.26025772c0.0741272 -0.0667305 0.19958115 -0.100097656 0.37635422 -0.100097656l0.95799255 0l0 -4.7704315c0 -0.56627274 0.25375366 -1.0734406 0.761261 -1.5215034c0.5075073 -0.44996643 1.2145996 -0.67495346 2.1212692 -0.67495346z" fill-rule="evenodd"/><path stroke="#000000" stroke-width="1.0" stroke-linejoin="round" stroke-linecap="butt" d="m27.935135 53.2492c0.8382454 0 1.5595913 0.18208694 2.1640377 0.546257c0.6044483 0.36226273 0.90667343 0.8522682 0.90667343 1.4700241c0 0.34319687 -0.10834503 0.6635132 -0.3250332 0.96094894c-0.21669006 0.29743576 -0.51891327 0.52051544 -0.90667343 0.6692314c-0.38775826 0.14871979 -1.0273705 0.2688408 -1.9188366 0.3603592c-0.89336777 0.0915184 -1.5738449 0.27169418 -2.0414371 0.540535c-0.46188927 0.26883698 -0.69283485 0.6263313 -0.69283485 1.0724869c0 0.38895416 0.2280941 0.7578926 0.6842804 1.1068077c0.4561882 0.3489151 1.1518726 0.52337646 2.087057 0.52337646c0.63295937 0 1.1680279 -0.08961487 1.6052074 -0.26883698c0.43527985 -0.18113327 0.75271034 -0.4089775 0.9522915 -0.6835327c0.1311531 -0.17731857 0.19673157 -0.39753723 0.19673157 -0.660656c0 -0.12011719 0.03611374 -0.21545029 0.108343124 -0.28599548c0.070329666 -0.072452545 0.15681458 -0.108680725 0.25945663 -0.108680725c0.10834503 0 0.1957798 0.037181854 0.26230812 0.11154175c0.06462479 0.07435608 0.09693909 0.1973381 0.09693909 0.36893463l0 1.4843254c0 0.17159653 -0.03421402 0.29457474 -0.10264206 0.36893463c-0.06842804 0.074359894 -0.15396309 0.11153793 -0.25660515 0.11153793c-0.07413101 0 -0.14065742 -0.020019531 -0.19958115 -0.060058594c-0.060825348 -0.040039062 -0.10264206 -0.08865738 -0.12545204 -0.14585876c-0.022809982 -0.05719757 -0.03421402 -0.1830368 -0.03421402 -0.3775139c-0.7241974 0.577713 -1.6536789 0.8665695 -2.7884445 0.8665695c-1.1347656 0 -1.9958172 -0.23833084 -2.5831585 -0.7149925c-0.5873413 -0.47856903 -0.88101196 -1.0238686 -0.88101196 -1.6359024c0 -0.41183472 0.13590622 -0.79507065 0.40771675 -1.1497078c0.26991272 -0.35463715 0.6814308 -0.6320534 1.2345562 -0.8322525c0.38776016 -0.1372757 1.080595 -0.26025772 2.0785027 -0.36893463c0.7641144 -0.08580017 1.2830276 -0.20877838 1.5567398 -0.36893463c0.3991642 -0.22879791 0.59874535 -0.5147972 0.59874535 -0.8579941c0 -0.303154 -0.16821861 -0.577713 -0.50465775 -0.82366943c-0.44478226 -0.32603836 -1.0691872 -0.48905563 -1.8732185 -0.48905563c-0.76981544 0 -1.3885193 0.16016006 -1.8561115 0.48047638c-0.31933022 0.22307587 -0.4961033 0.50621414 -0.5303173 0.849411c-0.0114040375 0.14299774 -0.049419403 0.24595642 -0.1140461 0.30887604c-0.06652641 0.06291962 -0.14826012 0.094379425 -0.24520111 0.094379425c-0.108343124 0 -0.19672966 -0.037181854 -0.2651577 -0.11153793c-0.06842804 -0.074359894 -0.10264206 -0.1973381 -0.10264206 -0.36893845l0 -1.235508c0 -0.17731476 0.03421402 -0.303154 0.10264206 -0.3775139c0.06842804 -0.074359894 0.15681458 -0.11153793 0.2651577 -0.11153793c0.10264206 0 0.18817711 0.03717804 0.25660515 0.11153793c0.06842804 0.074359894 0.10264206 0.19447708 0.10264206 0.36035538c0.6215553 -0.4861946 1.4284363 -0.7292938 2.4206429 -0.7292938z" fill-rule="evenodd"/><path stroke="#000000" stroke-width="1.0" stroke-linejoin="round" stroke-linecap="butt" d="m6.996146 53.978493c-0.83824396 0 -1.5605392 0.24881744 -2.1668887 0.74645233c-0.6082487 0.4976349 -0.98365355 1.1439896 -1.1262121 1.9390602l6.586202 0c-0.14826107 -0.8065109 -0.5246153 -1.4557266 -1.1290636 -1.9476395c-0.60444736 -0.49191666 -1.3257937 -0.7378731 -2.1640377 -0.7378731zm0 -0.7292938c1.1404676 0 2.0975113 0.37465668 2.871128 1.12397c0.7717171 0.74931335 1.1575747 1.6473427 1.1575747 2.6940918c0 1.1497078 -0.4115181 2.1297226 -1.2345562 2.9400482c-0.8249378 0.8084183 -1.8532605 1.2126274 -3.0849657 1.2126274c-0.7356019 0 -1.4521947 -0.123931885 -2.1497817 -0.37179565c-0.69948626 -0.24977112 -1.1860867 -0.5176544 -1.459799 -0.8036537c-0.09123731 -0.0915184 -0.13685608 -0.18589783 -0.13685608 -0.28313446c0 -0.09724045 0.03421402 -0.18113327 0.10264206 -0.25167847c0.06842804 -0.072452545 0.14826083 -0.10867691 0.23949838 -0.10867691c0.07983279 0 0.17392135 0.04289627 0.28226566 0.12869644c0.3706522 0.29171753 0.8496485 0.5262337 1.4369893 0.70355225c0.5873413 0.17731857 1.1490216 0.26597977 1.6850414 0.26597977c0.9636955 0 1.7724781 -0.28409195 2.4263449 -0.85227203c0.65196896 -0.57008743 1.0406771 -1.3213081 1.1661291 -2.2536583l-7.321804 0c-0.011404753 -1.2240639 0.36209846 -2.2202873 1.1205099 -2.9886665c0.75841093 -0.77028656 1.7249575 -1.1554298 2.8996391 -1.1554298z" fill-rule="evenodd"/><path fill="#000000" d="m58.09074 24.179266c0.96095276 0 1.7896919 0.352623 2.4862175 1.057867c0.6965294 0.70524406 1.0447922 1.5707703 1.0447922 2.5965786c0 1.0193996 -0.3482628 1.8838558 -1.0447922 2.5933743c-0.6965256 0.7073822 -1.5252647 1.0610714 -2.4862175 1.0610714c-0.9673958 0 -1.7993622 -0.3536892 -2.4958878 -1.0610714c-0.6965294 -0.70951843 -1.0447922 -1.5739746 -1.0447922 -2.5933743c0 -1.0258083 0.3482628 -1.8913345 1.0447922 -2.5965786c0.6965256 -0.70524406 1.528492 -1.057867 2.4958878 -1.057867zm2.4475212 -4.26993c-0.19992828 0 -0.34181213 0.038467407 -0.42565536 0.11540222c-0.08383942 0.07693672 -0.12576294 0.17310715 -0.12576294 0.28850937c0 0.12181473 0.041923523 0.2211914 0.12576294 0.29812622c0.08384323 0.076934814 0.22572708 0.11540413 0.42565536 0.11540413l1.0834885 0l0 4.5584393c-0.9673996 -1.2822609 -2.1605263 -1.9233913 -3.5793762 -1.9233913c-0.74167633 0 -1.4500237 0.19554329 -2.1250572 0.5866337c-0.67287827 0.3910904 -1.2049484 0.94459915 -1.5962067 1.6605282c-0.38911057 0.7137928 -0.58366394 1.455368 -0.58366394 2.2247238c0 0.7629471 0.19455338 1.5034523 0.58366394 2.2215195c0.39125824 0.71806717 0.9233284 1.2715759 1.5962067 1.6605282c0.67503357 0.38681412 1.3801575 0.5802231 2.1153831 0.5802231c1.4510956 0 2.6474457 -0.64113045 3.5890503 -1.9233913l0 1.6060314l1.905777 0c0.19992828 0 0.34181213 -0.038467407 0.42565536 -0.11540222c0.08384323 -0.07693672 0.12575912 -0.17310524 0.12575912 -0.28850937c0 -0.12181473 -0.041915894 -0.21905327 -0.12575912 -0.2917137c-0.08384323 -0.07480049 -0.22572708 -0.112197876 -0.42565536 -0.112197876l-1.0834885 0l0 -11.261463z" fill-rule="evenodd"/><path fill="#000000" d="m82.09192 24.179266c0.94805145 0 1.7649612 0.27889252 2.4507446 0.83667755c0.68792725 0.5577831 1.1125107 1.2822609 1.2737427 2.1734333l-7.4489746 0c0.16767883 -0.9039955 0.593338 -1.6316795 1.2769623 -2.183052c0.6836319 -0.5513725 1.4994736 -0.8270588 2.447525 -0.8270588zm0 -0.81744003c-1.2898712 0 -2.3722763 0.41993904 -3.2472382 1.2598209c-0.87281036 0.8398819 -1.3092117 1.8464565 -1.3092117 3.0197258c0 1.2886734 0.46542358 2.387144 1.3962784 3.295414c0.93299866 0.90612984 2.0960312 1.3591957 3.4890823 1.3591957c0.8319626 0 1.6424332 -0.1389122 2.4313965 -0.4167347c0.79112244 -0.27996063 1.3414612 -0.5802231 1.6510315 -0.90078926c0.10318756 -0.102581024 0.15478516 -0.2083664 0.15478516 -0.31735802c0 -0.10899353 -0.03869629 -0.20302582 -0.11608887 -0.28209877c-0.07739258 -0.08120918 -0.16768646 -0.12181473 -0.27087402 -0.12181473c-0.090286255 0 -0.19670105 0.04808426 -0.31923676 0.14425468c-0.41921234 0.32697678 -0.96095276 0.58983994 -1.6252365 0.7885914c-0.6642761 0.19874954 -1.2995377 0.2981243 -1.905777 0.2981243c-1.0899353 0 -2.0046616 -0.31842804 -2.7441864 -0.9552841c-0.73737335 -0.6389942 -1.177002 -1.4810123 -1.3188858 -2.5260544l8.280937 0c0.012893677 -1.3720207 -0.40953064 -2.488657 -1.2672958 -3.3499088c-0.85775757 -0.86338997 -1.9509201 -1.295084 -3.27948 -1.295084z" fill-rule="evenodd"/><path stroke="#000000" stroke-width="1.0" stroke-linejoin="round" stroke-linecap="butt" d="m58.09074 24.179266c0.96095276 0 1.7896919 0.352623 2.4862175 1.057867c0.6965294 0.70524406 1.0447922 1.5707703 1.0447922 2.5965786c0 1.0193996 -0.3482628 1.8838558 -1.0447922 2.5933743c-0.6965256 0.7073822 -1.5252647 1.0610714 -2.4862175 1.0610714c-0.9673958 0 -1.7993622 -0.3536892 -2.4958878 -1.0610714c-0.6965294 -0.70951843 -1.0447922 -1.5739746 -1.0447922 -2.5933743c0 -1.0258083 0.3482628 -1.8913345 1.0447922 -2.5965786c0.6965256 -0.70524406 1.528492 -1.057867 2.4958878 -1.057867zm2.4475212 -4.26993c-0.19992828 0 -0.34181213 0.038467407 -0.42565536 0.11540222c-0.08383942 0.07693672 -0.12576294 0.17310715 -0.12576294 0.28850937c0 0.12181473 0.041923523 0.2211914 0.12576294 0.29812622c0.08384323 0.076934814 0.22572708 0.11540413 0.42565536 0.11540413l1.0834885 0l0 4.5584393c-0.9673996 -1.2822609 -2.1605263 -1.9233913 -3.5793762 -1.9233913c-0.74167633 0 -1.4500237 0.19554329 -2.1250572 0.5866337c-0.67287827 0.3910904 -1.2049484 0.94459915 -1.5962067 1.6605282c-0.38911057 0.7137928 -0.58366394 1.455368 -0.58366394 2.2247238c0 0.7629471 0.19455338 1.5034523 0.58366394 2.2215195c0.39125824 0.71806717 0.9233284 1.2715759 1.5962067 1.6605282c0.67503357 0.38681412 1.3801575 0.5802231 2.1153831 0.5802231c1.4510956 0 2.6474457 -0.64113045 3.5890503 -1.9233913l0 1.6060314l1.905777 0c0.19992828 0 0.34181213 -0.038467407 0.42565536 -0.11540222c0.08384323 -0.07693672 0.12575912 -0.17310524 0.12575912 -0.28850937c0 -0.12181473 -0.041915894 -0.21905327 -0.12575912 -0.2917137c-0.08384323 -0.07480049 -0.22572708 -0.112197876 -0.42565536 -0.112197876l-1.0834885 0l0 -11.261463z" fill-rule="evenodd"/><path stroke="#000000" stroke-width="1.0" stroke-linejoin="round" stroke-linecap="butt" d="m82.09192 24.179266c0.94805145 0 1.7649612 0.27889252 2.4507446 0.83667755c0.68792725 0.5577831 1.1125107 1.2822609 1.2737427 2.1734333l-7.4489746 0c0.16767883 -0.9039955 0.593338 -1.6316795 1.2769623 -2.183052c0.6836319 -0.5513725 1.4994736 -0.8270588 2.447525 -0.8270588zm0 -0.81744003c-1.2898712 0 -2.3722763 0.41993904 -3.2472382 1.2598209c-0.87281036 0.8398819 -1.3092117 1.8464565 -1.3092117 3.0197258c0 1.2886734 0.46542358 2.387144 1.3962784 3.295414c0.93299866 0.90612984 2.0960312 1.3591957 3.4890823 1.3591957c0.8319626 0 1.6424332 -0.1389122 2.4313965 -0.4167347c0.79112244 -0.27996063 1.3414612 -0.5802231 1.6510315 -0.90078926c0.10318756 -0.102581024 0.15478516 -0.2083664 0.15478516 -0.31735802c0 -0.10899353 -0.03869629 -0.20302582 -0.11608887 -0.28209877c-0.07739258 -0.08120918 -0.16768646 -0.12181473 -0.27087402 -0.12181473c-0.090286255 0 -0.19670105 0.04808426 -0.31923676 0.14425468c-0.41921234 0.32697678 -0.96095276 0.58983994 -1.6252365 0.7885914c-0.6642761 0.19874954 -1.2995377 0.2981243 -1.905777 0.2981243c-1.0899353 0 -2.0046616 -0.31842804 -2.7441864 -0.9552841c-0.73737335 -0.6389942 -1.177002 -1.4810123 -1.3188858 -2.5260544l8.280937 0c0.012893677 -1.3720207 -0.40953064 -2.488657 -1.2672958 -3.3499088c-0.85775757 -0.86338997 -1.9509201 -1.295084 -3.27948 -1.295084z" fill-rule="evenodd"/><path fill="#000000" d="m32.89585 3.8476589c-0.35036469 0 -0.65693283 0.067750454 -0.91970825 0.20325112c-0.26277542 0.13550091 -0.46715546 0.20325089 -0.613142 0.20325089c-0.05839348 0 -0.1313858 -0.003762722 -0.21897888 -0.011291504c-0.08759117 -0.015054703 -0.1605835 -0.022583485 -0.21897888 -0.022583485c-0.17518234 0 -0.37956238 0.05269575 -0.6131401 0.15808439c-0.23357773 0.09786224 -0.46715355 0.22207117 -0.7007313 0.37262678c-0.23357773 0.14302969 -0.47688866 0.2898221 -0.729929 0.4403777c-0.24331093 0.14302921 -0.4525566 0.24841785 -0.62773895 0.3161683c-0.7007332 0.3161683 -1.4695911 0.60975313 -2.3065777 0.8807545c-0.82725334 0.27100182 -1.4890556 0.56458664 -1.9854069 0.88075495c-0.23357773 0.11291742 -0.38929558 0.27100182 -0.46715546 0.4742527c-0.06812668 0.20325089 -0.23357582 0.38391876 -0.49635124 0.5420027c-0.81752014 0.49683666 -1.6350422 0.98238087 -2.4525623 1.4566336c-0.81752014 0.4742527 -1.6350422 1.0049639 -2.4525623 1.5921335c-0.8759155 0.6097536 -1.6739712 1.2044516 -2.394168 1.7840929c-0.7104635 0.57211494 -1.4306612 1.1517563 -2.1605902 1.7389259c-0.40876007 0.31616879 -0.8418522 0.6285744 -1.2992744 0.9372139c-0.44769 0.30111313 -0.7883234 0.57587814 -1.0219002 0.82429695c-0.087592125 0.11291695 -0.1849165 0.30487633 -0.29197216 0.57587814c-0.09732437 0.2709999 -0.21897888 0.4968357 -0.3649645 0.6775036c-0.1459856 0.20325089 -0.33090115 0.39144707 -0.5547466 0.56458664c-0.21411228 0.16561127 -0.35036564 0.32745934 -0.40876007 0.4855442c-0.1751833 0.2709999 -0.2773733 0.5156555 -0.30657005 0.7339611c-0.029197693 0.2107811 -0.1459856 0.37262726 -0.3503666 0.4855442c-0.02919674 0.022584915 -0.043795586 0.06775093 -0.043795586 0.13550186c0 0.045166016 0.0048666 0.10915375 0.014598846 0.19195938c0.019464493 0.075279236 0.02919674 0.13549995 0.02919674 0.18066788l0 0.03387451c-0.2919712 0.54200363 -0.52554893 1.1254101 -0.7007313 1.7502174c-0.1751833 0.61728287 -0.32116938 1.2609081 -0.43795776 1.9308853c-0.116788864 0.662447 -0.21411276 1.328659 -0.29197168 1.9986362c-0.068127155 0.662447 -0.14598608 1.2985497 -0.23357725 1.9083023c-0.029197216 0.24841881 -0.08759165 0.5081272 -0.1751833 0.779129c-0.08759165 0.27100182 -0.13138723 0.5081291 -0.13138723 0.71138c0 0.2484169 0.03406334 0.5420017 0.10219002 0.8807545c0.077858925 0.33875084 0.15085173 0.68503 0.21897888 1.0388393c0.077858925 0.34627533 0.15085173 0.6662102 0.21897888 0.9597969c0.077858925 0.29358292 0.11678839 0.5194206 0.11678839 0.6775017c0 0.112918854 0.04866171 0.21454239 0.14598608 0.30487823c0.10705614 0.09033203 0.16058445 0.15808487 0.16058445 0.20325089c0.23357725 1.0840073 0.46715498 2.107788 0.70073175 3.07135c0.23357773 0.9560318 0.65693665 1.6937599 1.2700768 2.2131805c0.3503666 0.31616592 0.65693665 0.6850281 0.9197111 1.1065865c0.26277447 0.41402817 0.5109501 0.7226715 0.7445278 0.9259224c0.23357773 0.20325089 0.4525566 0.32369614 0.65693665 0.36133575c0.20438004 0.030109406 0.40876007 0.090335846 0.6131401 0.18066788c0.058394432 0 0.116788864 0.06774902 0.1751833 0.20325089c0.058394432 0.13550186 0.116788864 0.2258339 0.1751833 0.2709999c0.7883234 0.4290886 1.6837034 0.80171585 2.686139 1.1178818c1.0121689 0.31616974 1.8686199 0.621048 2.5693512 0.9146309c0.5839424 0.2484169 1.3284702 0.42908478 2.2335835 0.54200363c0.9051113 0.11291504 1.8248234 0.16937637 2.7591324 0.16937637c0.9927044 0 1.8248234 -0.06775284 2.496357 -0.20325089c0.5839443 -0.13550186 1.2116833 -0.22206879 1.8832188 -0.25971222c0.6715336 -0.030109406 1.240879 -0.11291504 1.7080345 -0.2484169c0.14598465 -0.06774902 0.282238 -0.17690277 0.40876007 -0.32746124c0.13625336 -0.14302444 0.27737236 -0.21454239 0.42335892 -0.21454239c0.05839348 0 0.12165451 0.0037651062 0.18978119 0.011291504c0.07785797 0.015060425 0.14598656 0.022583008 0.20438004 0.022583008c0.14598656 0 0.22384453 -0.07151413 0.23357773 -0.21454239c0.019464493 -0.15055847 0.08759117 -0.2484169 0.20438004 -0.29358292c0.3503666 -0.15808487 0.6618023 -0.25218582 0.934309 -0.28229523c0.282238 -0.037639618 0.510952 -0.11291504 0.68613434 -0.2258339c0.2919731 -0.2258339 0.5012169 -0.42908478 0.62773895 -0.60975266c0.13625336 -0.18066788 0.36496353 -0.39521027 0.68613434 -0.64362717c0.20438004 -0.18066788 0.43795776 -0.32746124 0.70072937 -0.4403801c0.26277542 -0.11291504 0.46715546 -0.2258339 0.6131439 -0.33874893c0.43795395 -0.40650558 0.78832245 -0.8581734 1.0510979 -1.355011c0.2627716 -0.4968338 0.5547447 -0.88075256 0.8759117 -1.1517563l2.9781113 -2.540638c0.43795776 -0.38391876 0.86618423 -0.7452545 1.2846756 -1.0840034c0.42822647 -0.33875275 0.7591286 -0.733963 0.9927063 -1.1856346l-0.30657196 0c-0.40876007 0 -0.75912476 0.06398773 -1.0510979 0.19195938c-0.2919693 0.12044525 -0.54987717 0.27853012 -0.7737236 0.4742546c-0.21411133 0.18819427 -0.41849136 0.38391876 -0.6131401 0.58716965c-0.18491745 0.20325089 -0.36496735 0.37262726 -0.5401497 0.5081291c-0.23357773 0.18066406 -0.50608444 0.33874893 -0.81752014 0.4742508c-0.3017044 0.13550186 -0.56934357 0.31616974 -0.8029213 0.54200363c-0.23357773 0.2258339 -0.40389252 0.4930687 -0.510952 0.80171204c-0.09732437 0.3011093 -0.26277542 0.54200363 -0.49634933 0.7226715c-0.13686371 0.10585785 -0.3336029 0.15879059 -0.5902176 0.15879059c-0.017108917 0 -0.03448105 -2.4032593E-4 -0.05212021 -7.05719E-4c-0.0389328 -0.0021514893 -0.0765686 -0.003227234 -0.112918854 -0.003227234c-0.21808243 0 -0.3896904 0.038715363 -0.5148201 0.11614227c-0.4087639 0.18066788 -0.7250633 0.42908478 -0.94890976 0.7452545c-0.21411133 0.31616974 -0.4525566 0.56458664 -0.71533203 0.7452545c-0.14598465 0.112918854 -0.35036469 0.20325089 -0.6131401 0.2709999c-0.26277542 0.06775284 -0.49634933 0.14679337 -0.70072937 0.23712921c-0.52555084 0.2484169 -1.0073032 0.4516678 -1.445261 0.60975266c-0.43795776 0.15808487 -0.9051132 0.2822914 -1.4014645 0.37262726c-0.49635124 0.09033203 -1.0510979 0.15431595 -1.6642399 0.19195938c-0.6131401 0.030109406 -1.3576679 0.045166016 -2.2335835 0.045166016c-0.6715336 0 -1.3236046 -0.01505661 -1.9562092 -0.045166016c-0.6228733 -0.037643433 -1.0948944 -0.090335846 -1.4160633 -0.15808487c-0.14598465 -0.045166016 -0.43795776 -0.20325089 -0.8759155 -0.4742546c-0.43795586 -0.2709999 -0.91971016 -0.5307083 -1.4452591 -0.779129c-0.49635124 -0.2258339 -0.98783684 -0.40650177 -1.4744568 -0.5419998c-0.47688675 -0.13550186 -0.84671783 -0.29358673 -1.1094933 -0.4742546c-0.6423378 -0.40650177 -1.1094913 -0.81676865 -1.4014626 -1.2307968c-0.29197216 -0.4215622 -0.51095104 -0.81677246 -0.6569376 -1.1856308c-0.1459856 -0.37639618 -0.2725067 -0.7038536 -0.37956238 -0.9823837c-0.09732437 -0.28605652 -0.26277542 -0.5081253 -0.4963522 -0.6662102c-0.029197693 0 -0.043795586 -0.03387451 -0.043795586 -0.10162735c0 -0.045166016 0.0048656464 -0.09409714 0.014597893 -0.14678955c0.019465446 -0.06022644 0.029197693 -0.112918854 0.029197693 -0.15808487l0 -0.06775284c-0.23357773 -0.42908478 -0.40876007 -0.9033356 -0.52554893 -1.4227562c-0.116788864 -0.5194206 -0.20438004 -1.053896 -0.26277447 -1.603426c-0.058394432 -0.55706024 -0.09732437 -1.1178799 -0.116788864 -1.6824665c-0.0097332 -0.56458664 -0.029197693 -1.1178818 -0.058394432 -1.6598854c-0.02919674 -0.31616783 -0.09732437 -0.6473942 -0.20438004 -0.9936714c-0.09732437 -0.35380936 -0.1459856 -0.6549206 -0.1459856 -0.9033375c0 -0.31616974 0.11678791 -0.61351967 0.35036564 -0.8920479c0.23357773 -0.28605843 0.35036564 -0.62104416 0.35036564 -1.0049629c0 -0.2258339 -0.014597893 -0.4403782 -0.043795586 -0.6436291c-0.02919674 -0.20325089 -0.043795586 -0.38391876 -0.043795586 -0.5420017c0 -0.36133575 0.1459856 -0.6662121 0.43795776 -0.9146309c0.2919712 -0.24841881 0.48175335 -0.4629612 0.5693445 -0.6436291c0.1751833 -0.38391876 0.3211689 -0.79418373 0.43795776 -1.2307987c0.116788864 -0.44413948 0.18978119 -0.7113781 0.21897888 -0.80171204c0.26277447 -0.6775036 0.4720211 -1.189394 0.62773895 -1.535675c0.16545105 -0.35380554 0.29683876 -0.62104416 0.39416122 -0.80171204c0.10705757 -0.18066788 0.20438004 -0.30863953 0.2919731 -0.38391876c0.08759117 -0.08280563 0.18978119 -0.19195938 0.30657005 -0.32746124c0.116788864 -0.11291695 0.18004799 -0.2408886 0.18978119 -0.3839178c0.019464493 -0.15055561 0.072992325 -0.27100182 0.1605835 -0.36133575c0.08759308 -0.11291695 0.19464874 -0.19572258 0.3211689 -0.24841785c0.13625336 -0.060221672 0.24817657 -0.14679241 0.33576775 -0.2597103c0.3211689 -0.40650177 0.5839443 -0.7151413 0.78832436 -0.92592144c0.20438004 -0.21830559 0.4817524 -0.4968357 0.832119 -0.8355875c0.17518234 -0.18066788 0.3406334 -0.40650272 0.49635124 -0.6775036c0.16545105 -0.27100182 0.33576775 -0.4742527 0.5109501 -0.6097536c0.14598656 -0.1129179 0.3795643 -0.21454334 0.7007332 -0.30487728c0.3211689 -0.090332985 0.62773895 -0.23712635 0.91971016 -0.44037724c0.49635315 -0.3387518 0.94890785 -0.7000866 1.3576679 -1.0840054c0.40876198 -0.38391876 0.81752205 -0.70008755 1.2262821 -0.9485054c0.49635124 -0.27100182 1.036499 -0.45543194 1.6204433 -0.55329514c0.5839424 -0.10538864 1.1678867 -0.15808392 1.7518291 -0.15808392c1.751831 0 3.187357 0.13173771 4.3065834 0.39521027c1.1289558 0.2559471 2.1021957 0.53824043 2.919716 0.84687996c0.81752014 0.30111313 1.5523186 0.58340645 2.2043877 0.84687996c0.6618004 0.25594616 1.3722649 0.38391876 2.1313934 0.38391876c0.20438004 0 0.41362762 -0.060221672 0.62773895 -0.18066788c0.22384644 -0.1279726 0.4525566 -0.28229332 0.68613434 -0.4629612c0.23357391 -0.18066788 0.4720192 -0.37262726 0.7153282 -0.57587814c0.25304413 -0.20325089 0.49635315 -0.38391876 0.7299309 -0.5420027c0.11678696 -0.06775093 0.27737045 -0.1129179 0.4817505 -0.13550091c0.20438385 -0.022583008 0.36496735 -0.06774998 0.4817543 -0.13550091c0.14598846 -0.09033394 0.3114395 -0.21454239 0.49635315 -0.37262726c0.19464874 -0.15808392 0.37956238 -0.31993103 0.5547447 -0.48554373c0.17518234 -0.1731391 0.3211708 -0.342515 0.43795776 -0.50812817c0.11679077 -0.17313862 0.17518234 -0.30487633 0.17518234 -0.39521027c-0.05839157 -0.11291742 -0.19951248 -0.20701408 -0.42335892 -0.28229332c-0.21411133 -0.08280516 -0.46715164 -0.14679241 -0.75912476 -0.19195938c-0.2919731 -0.04516697 -0.5790787 -0.09033394 -0.8613167 -0.13550091c-0.2725067 -0.045166492 -0.46715546 -0.09033346 -0.5839424 -0.13550043c-1.0510979 -0.38391876 -1.8345566 -0.6549206 -2.3503723 -0.8130045c-0.50608444 -0.15808439 -0.8759155 -0.25218105 -1.1094933 -0.28229332c-0.23357773 -0.037638187 -0.40876007 -0.056458473 -0.52555084 -0.056458473c-0.11678696 0 -0.30656815 -0.04516697 -0.56934357 -0.13550091c-0.26277542 -0.067750454 -0.59854126 -0.1693759 -1.0073013 -0.3048768c-0.40876007 -0.13550043 -0.8564491 -0.25970936 -1.343071 -0.37262678c-0.47688675 -0.11291742 -0.9635048 -0.21454287 -1.459858 -0.3048768c-0.49635315 -0.0903337 -0.94890594 -0.13550067 -1.3576698 -0.13550067z" fill-rule="evenodd"/><path stroke="#000000" stroke-width="1.0" stroke-linejoin="round" stroke-linecap="butt" d="m32.89585 3.8476589c-0.35036469 0 -0.65693283 0.067750454 -0.91970825 0.20325112c-0.26277542 0.13550091 -0.46715546 0.20325089 -0.613142 0.20325089c-0.05839348 0 -0.1313858 -0.003762722 -0.21897888 -0.011291504c-0.08759117 -0.015054703 -0.1605835 -0.022583485 -0.21897888 -0.022583485c-0.17518234 0 -0.37956238 0.05269575 -0.6131401 0.15808439c-0.23357773 0.09786224 -0.46715355 0.22207117 -0.7007313 0.37262678c-0.23357773 0.14302969 -0.47688866 0.2898221 -0.729929 0.4403777c-0.24331093 0.14302921 -0.4525566 0.24841785 -0.62773895 0.3161683c-0.7007332 0.3161683 -1.4695911 0.60975313 -2.3065777 0.8807545c-0.82725334 0.27100182 -1.4890556 0.56458664 -1.9854069 0.88075495c-0.23357773 0.11291742 -0.38929558 0.27100182 -0.46715546 0.4742527c-0.06812668 0.20325089 -0.23357582 0.38391876 -0.49635124 0.5420027c-0.81752014 0.49683666 -1.6350422 0.98238087 -2.4525623 1.4566336c-0.81752014 0.4742527 -1.6350422 1.0049639 -2.4525623 1.5921335c-0.8759155 0.6097536 -1.6739712 1.2044516 -2.394168 1.7840929c-0.7104635 0.57211494 -1.4306612 1.1517563 -2.1605902 1.7389259c-0.40876007 0.31616879 -0.8418522 0.6285744 -1.2992744 0.9372139c-0.44769 0.30111313 -0.7883234 0.57587814 -1.0219002 0.82429695c-0.087592125 0.11291695 -0.1849165 0.30487633 -0.29197216 0.57587814c-0.09732437 0.2709999 -0.21897888 0.4968357 -0.3649645 0.6775036c-0.1459856 0.20325089 -0.33090115 0.39144707 -0.5547466 0.56458664c-0.21411228 0.16561127 -0.35036564 0.32745934 -0.40876007 0.4855442c-0.1751833 0.2709999 -0.2773733 0.5156555 -0.30657005 0.7339611c-0.029197693 0.2107811 -0.1459856 0.37262726 -0.3503666 0.4855442c-0.02919674 0.022584915 -0.043795586 0.06775093 -0.043795586 0.13550186c0 0.045166016 0.0048666 0.10915375 0.014598846 0.19195938c0.019464493 0.075279236 0.02919674 0.13549995 0.02919674 0.18066788l0 0.03387451c-0.2919712 0.54200363 -0.52554893 1.1254101 -0.7007313 1.7502174c-0.1751833 0.61728287 -0.32116938 1.2609081 -0.43795776 1.9308853c-0.116788864 0.662447 -0.21411276 1.328659 -0.29197168 1.9986362c-0.068127155 0.662447 -0.14598608 1.2985497 -0.23357725 1.9083023c-0.029197216 0.24841881 -0.08759165 0.5081272 -0.1751833 0.779129c-0.08759165 0.27100182 -0.13138723 0.5081291 -0.13138723 0.71138c0 0.2484169 0.03406334 0.5420017 0.10219002 0.8807545c0.077858925 0.33875084 0.15085173 0.68503 0.21897888 1.0388393c0.077858925 0.34627533 0.15085173 0.6662102 0.21897888 0.9597969c0.077858925 0.29358292 0.11678839 0.5194206 0.11678839 0.6775017c0 0.112918854 0.04866171 0.21454239 0.14598608 0.30487823c0.10705614 0.09033203 0.16058445 0.15808487 0.16058445 0.20325089c0.23357725 1.0840073 0.46715498 2.107788 0.70073175 3.07135c0.23357773 0.9560318 0.65693665 1.6937599 1.2700768 2.2131805c0.3503666 0.31616592 0.65693665 0.6850281 0.9197111 1.1065865c0.26277447 0.41402817 0.5109501 0.7226715 0.7445278 0.9259224c0.23357773 0.20325089 0.4525566 0.32369614 0.65693665 0.36133575c0.20438004 0.030109406 0.40876007 0.090335846 0.6131401 0.18066788c0.058394432 0 0.116788864 0.06774902 0.1751833 0.20325089c0.058394432 0.13550186 0.116788864 0.2258339 0.1751833 0.2709999c0.7883234 0.4290886 1.6837034 0.80171585 2.686139 1.1178818c1.0121689 0.31616974 1.8686199 0.621048 2.5693512 0.9146309c0.5839424 0.2484169 1.3284702 0.42908478 2.2335835 0.54200363c0.9051113 0.11291504 1.8248234 0.16937637 2.7591324 0.16937637c0.9927044 0 1.8248234 -0.06775284 2.496357 -0.20325089c0.5839443 -0.13550186 1.2116833 -0.22206879 1.8832188 -0.25971222c0.6715336 -0.030109406 1.240879 -0.11291504 1.7080345 -0.2484169c0.14598465 -0.06774902 0.282238 -0.17690277 0.40876007 -0.32746124c0.13625336 -0.14302444 0.27737236 -0.21454239 0.42335892 -0.21454239c0.05839348 0 0.12165451 0.0037651062 0.18978119 0.011291504c0.07785797 0.015060425 0.14598656 0.022583008 0.20438004 0.022583008c0.14598656 0 0.22384453 -0.07151413 0.23357773 -0.21454239c0.019464493 -0.15055847 0.08759117 -0.2484169 0.20438004 -0.29358292c0.3503666 -0.15808487 0.6618023 -0.25218582 0.934309 -0.28229523c0.282238 -0.037639618 0.510952 -0.11291504 0.68613434 -0.2258339c0.2919731 -0.2258339 0.5012169 -0.42908478 0.62773895 -0.60975266c0.13625336 -0.18066788 0.36496353 -0.39521027 0.68613434 -0.64362717c0.20438004 -0.18066788 0.43795776 -0.32746124 0.70072937 -0.4403801c0.26277542 -0.11291504 0.46715546 -0.2258339 0.6131439 -0.33874893c0.43795395 -0.40650558 0.78832245 -0.8581734 1.0510979 -1.355011c0.2627716 -0.4968338 0.5547447 -0.88075256 0.8759117 -1.1517563l2.9781113 -2.540638c0.43795776 -0.38391876 0.86618423 -0.7452545 1.2846756 -1.0840034c0.42822647 -0.33875275 0.7591286 -0.733963 0.9927063 -1.1856346l-0.30657196 0c-0.40876007 0 -0.75912476 0.06398773 -1.0510979 0.19195938c-0.2919693 0.12044525 -0.54987717 0.27853012 -0.7737236 0.4742546c-0.21411133 0.18819427 -0.41849136 0.38391876 -0.6131401 0.58716965c-0.18491745 0.20325089 -0.36496735 0.37262726 -0.5401497 0.5081291c-0.23357773 0.18066406 -0.50608444 0.33874893 -0.81752014 0.4742508c-0.3017044 0.13550186 -0.56934357 0.31616974 -0.8029213 0.54200363c-0.23357773 0.2258339 -0.40389252 0.4930687 -0.510952 0.80171204c-0.09732437 0.3011093 -0.26277542 0.54200363 -0.49634933 0.7226715c-0.13686371 0.10585785 -0.3336029 0.15879059 -0.5902176 0.15879059c-0.017108917 0 -0.03448105 -2.4032593E-4 -0.05212021 -7.05719E-4c-0.0389328 -0.0021514893 -0.0765686 -0.003227234 -0.112918854 -0.003227234c-0.21808243 0 -0.3896904 0.038715363 -0.5148201 0.11614227c-0.4087639 0.18066788 -0.7250633 0.42908478 -0.94890976 0.7452545c-0.21411133 0.31616974 -0.4525566 0.56458664 -0.71533203 0.7452545c-0.14598465 0.112918854 -0.35036469 0.20325089 -0.6131401 0.2709999c-0.26277542 0.06775284 -0.49634933 0.14679337 -0.70072937 0.23712921c-0.52555084 0.2484169 -1.0073032 0.4516678 -1.445261 0.60975266c-0.43795776 0.15808487 -0.9051132 0.2822914 -1.4014645 0.37262726c-0.49635124 0.09033203 -1.0510979 0.15431595 -1.6642399 0.19195938c-0.6131401 0.030109406 -1.3576679 0.045166016 -2.2335835 0.045166016c-0.6715336 0 -1.3236046 -0.01505661 -1.9562092 -0.045166016c-0.6228733 -0.037643433 -1.0948944 -0.090335846 -1.4160633 -0.15808487c-0.14598465 -0.045166016 -0.43795776 -0.20325089 -0.8759155 -0.4742546c-0.43795586 -0.2709999 -0.91971016 -0.5307083 -1.4452591 -0.779129c-0.49635124 -0.2258339 -0.98783684 -0.40650177 -1.4744568 -0.5419998c-0.47688675 -0.13550186 -0.84671783 -0.29358673 -1.1094933 -0.4742546c-0.6423378 -0.40650177 -1.1094913 -0.81676865 -1.4014626 -1.2307968c-0.29197216 -0.4215622 -0.51095104 -0.81677246 -0.6569376 -1.1856308c-0.1459856 -0.37639618 -0.2725067 -0.7038536 -0.37956238 -0.9823837c-0.09732437 -0.28605652 -0.26277542 -0.5081253 -0.4963522 -0.6662102c-0.029197693 0 -0.043795586 -0.03387451 -0.043795586 -0.10162735c0 -0.045166016 0.0048656464 -0.09409714 0.014597893 -0.14678955c0.019465446 -0.06022644 0.029197693 -0.112918854 0.029197693 -0.15808487l0 -0.06775284c-0.23357773 -0.42908478 -0.40876007 -0.9033356 -0.52554893 -1.4227562c-0.116788864 -0.5194206 -0.20438004 -1.053896 -0.26277447 -1.603426c-0.058394432 -0.55706024 -0.09732437 -1.1178799 -0.116788864 -1.6824665c-0.0097332 -0.56458664 -0.029197693 -1.1178818 -0.058394432 -1.6598854c-0.02919674 -0.31616783 -0.09732437 -0.6473942 -0.20438004 -0.9936714c-0.09732437 -0.35380936 -0.1459856 -0.6549206 -0.1459856 -0.9033375c0 -0.31616974 0.11678791 -0.61351967 0.35036564 -0.8920479c0.23357773 -0.28605843 0.35036564 -0.62104416 0.35036564 -1.0049629c0 -0.2258339 -0.014597893 -0.4403782 -0.043795586 -0.6436291c-0.02919674 -0.20325089 -0.043795586 -0.38391876 -0.043795586 -0.5420017c0 -0.36133575 0.1459856 -0.6662121 0.43795776 -0.9146309c0.2919712 -0.24841881 0.48175335 -0.4629612 0.5693445 -0.6436291c0.1751833 -0.38391876 0.3211689 -0.79418373 0.43795776 -1.2307987c0.116788864 -0.44413948 0.18978119 -0.7113781 0.21897888 -0.80171204c0.26277447 -0.6775036 0.4720211 -1.189394 0.62773895 -1.535675c0.16545105 -0.35380554 0.29683876 -0.62104416 0.39416122 -0.80171204c0.10705757 -0.18066788 0.20438004 -0.30863953 0.2919731 -0.38391876c0.08759117 -0.08280563 0.18978119 -0.19195938 0.30657005 -0.32746124c0.116788864 -0.11291695 0.18004799 -0.2408886 0.18978119 -0.3839178c0.019464493 -0.15055561 0.072992325 -0.27100182 0.1605835 -0.36133575c0.08759308 -0.11291695 0.19464874 -0.19572258 0.3211689 -0.24841785c0.13625336 -0.060221672 0.24817657 -0.14679241 0.33576775 -0.2597103c0.3211689 -0.40650177 0.5839443 -0.7151413 0.78832436 -0.92592144c0.20438004 -0.21830559 0.4817524 -0.4968357 0.832119 -0.8355875c0.17518234 -0.18066788 0.3406334 -0.40650272 0.49635124 -0.6775036c0.16545105 -0.27100182 0.33576775 -0.4742527 0.5109501 -0.6097536c0.14598656 -0.1129179 0.3795643 -0.21454334 0.7007332 -0.30487728c0.3211689 -0.090332985 0.62773895 -0.23712635 0.91971016 -0.44037724c0.49635315 -0.3387518 0.94890785 -0.7000866 1.3576679 -1.0840054c0.40876198 -0.38391876 0.81752205 -0.70008755 1.2262821 -0.9485054c0.49635124 -0.27100182 1.036499 -0.45543194 1.6204433 -0.55329514c0.5839424 -0.10538864 1.1678867 -0.15808392 1.7518291 -0.15808392c1.751831 0 3.187357 0.13173771 4.3065834 0.39521027c1.1289558 0.2559471 2.1021957 0.53824043 2.919716 0.84687996c0.81752014 0.30111313 1.5523186 0.58340645 2.2043877 0.84687996c0.6618004 0.25594616 1.3722649 0.38391876 2.1313934 0.38391876c0.20438004 0 0.41362762 -0.060221672 0.62773895 -0.18066788c0.22384644 -0.1279726 0.4525566 -0.28229332 0.68613434 -0.4629612c0.23357391 -0.18066788 0.4720192 -0.37262726 0.7153282 -0.57587814c0.25304413 -0.20325089 0.49635315 -0.38391876 0.7299309 -0.5420027c0.11678696 -0.06775093 0.27737045 -0.1129179 0.4817505 -0.13550091c0.20438385 -0.022583008 0.36496735 -0.06774998 0.4817543 -0.13550091c0.14598846 -0.09033394 0.3114395 -0.21454239 0.49635315 -0.37262726c0.19464874 -0.15808392 0.37956238 -0.31993103 0.5547447 -0.48554373c0.17518234 -0.1731391 0.3211708 -0.342515 0.43795776 -0.50812817c0.11679077 -0.17313862 0.17518234 -0.30487633 0.17518234 -0.39521027c-0.05839157 -0.11291742 -0.19951248 -0.20701408 -0.42335892 -0.28229332c-0.21411133 -0.08280516 -0.46715164 -0.14679241 -0.75912476 -0.19195938c-0.2919731 -0.04516697 -0.5790787 -0.09033394 -0.8613167 -0.13550091c-0.2725067 -0.045166492 -0.46715546 -0.09033346 -0.5839424 -0.13550043c-1.0510979 -0.38391876 -1.8345566 -0.6549206 -2.3503723 -0.8130045c-0.50608444 -0.15808439 -0.8759155 -0.25218105 -1.1094933 -0.28229332c-0.23357773 -0.037638187 -0.40876007 -0.056458473 -0.52555084 -0.056458473c-0.11678696 0 -0.30656815 -0.04516697 -0.56934357 -0.13550091c-0.26277542 -0.067750454 -0.59854126 -0.1693759 -1.0073013 -0.3048768c-0.40876007 -0.13550043 -0.8564491 -0.25970936 -1.343071 -0.37262678c-0.47688675 -0.11291742 -0.9635048 -0.21454287 -1.459858 -0.3048768c-0.49635315 -0.0903337 -0.94890594 -0.13550067 -1.3576698 -0.13550067z" fill-rule="evenodd"/><path fill="#000000" d="m30.469816 64.27821l0 -1.1014938c1.1678257 -0.23815918 2.0150738 -0.5160141 2.5417385 -0.83356476c0.36637878 -0.23815918 0.83579636 -0.7045593 1.4082603 -1.3991966c0.7556534 -0.9129524 1.3052177 -1.6770515 1.6486969 -2.2923012l11.300438 -20.571182l-2.2326088 -4.7334557c-0.82434845 -1.766365 -1.6448822 -2.9571705 -2.4615974 -3.5724201c-0.80908203 -0.61525154 -1.5571022 -0.92287636 -2.2440567 -0.92287636c-0.22898483 0 -0.8014488 0.1488514 -1.717392 0.44655228c-1.3052177 0.43663025 -2.3356514 0.65494347 -3.0913048 0.65494347c-1.0991287 0 -1.9654579 -0.25139427 -2.5989876 -0.7541771c-0.62589264 -0.5094013 -0.93883896 -1.1808834 -0.93883896 -2.0144482c0 -0.8732567 0.43507385 -1.6472816 1.3052177 -2.322071c0.8701439 -0.67479134 1.9807243 -1.012186 3.3317413 -1.012186c1.8547821 0 3.782074 0.6747894 5.7818832 2.0243702c2.0074387 1.3495808 3.6294212 3.344183 4.865944 5.983803l12.811741 27.20993c0.572464 1.2503471 0.9617386 2.0144463 1.1678238 2.2923012c0.5495682 0.6549454 1.0533333 1.1014977 1.5113068 1.3396568c0.45796967 0.238163 1.1105804 0.3969345 1.9578285 0.47632217l0 1.1014938l-10.235657 0l0 -1.1014938c0.9846382 0 1.6715965 -0.06615448 2.0608711 -0.19846725c0.3892746 -0.12569809 0.6755066 -0.2977028 0.858696 -0.5160141c0.16028976 -0.1786232 0.24043274 -0.44655228 0.24043274 -0.80379486c0 -0.79387283 -0.1946373 -1.5976677 -0.5839119 -2.4113846l-7.0413055 -15.063702l-7.659565 13.753815c-0.7556534 1.3694267 -1.1334801 2.4411545 -1.1334801 3.2151794c0 0.5755539 0.25569916 1.0551834 0.7671013 1.4388885c0.51903534 0.39031982 1.2937698 0.58547974 2.3242035 0.58547974l0.72130585 0l0 1.1014938z" fill-rule="evenodd"/><path stroke="#000000" stroke-width="1.0" stroke-linejoin="round" stroke-linecap="butt" d="m30.469816 64.27821l0 -1.1014938c1.1678257 -0.23815918 2.0150738 -0.5160141 2.5417385 -0.83356476c0.36637878 -0.23815918 0.83579636 -0.7045593 1.4082603 -1.3991966c0.7556534 -0.9129524 1.3052177 -1.6770515 1.6486969 -2.2923012l11.300438 -20.571182l-2.2326088 -4.7334557c-0.82434845 -1.766365 -1.6448822 -2.9571705 -2.4615974 -3.5724201c-0.80908203 -0.61525154 -1.5571022 -0.92287636 -2.2440567 -0.92287636c-0.22898483 0 -0.8014488 0.1488514 -1.717392 0.44655228c-1.3052177 0.43663025 -2.3356514 0.65494347 -3.0913048 0.65494347c-1.0991287 0 -1.9654579 -0.25139427 -2.5989876 -0.7541771c-0.62589264 -0.5094013 -0.93883896 -1.1808834 -0.93883896 -2.0144482c0 -0.8732567 0.43507385 -1.6472816 1.3052177 -2.322071c0.8701439 -0.67479134 1.9807243 -1.012186 3.3317413 -1.012186c1.8547821 0 3.782074 0.6747894 5.7818832 2.0243702c2.0074387 1.3495808 3.6294212 3.344183 4.865944 5.983803l12.811741 27.20993c0.572464 1.2503471 0.9617386 2.0144463 1.1678238 2.2923012c0.5495682 0.6549454 1.0533333 1.1014977 1.5113068 1.3396568c0.45796967 0.238163 1.1105804 0.3969345 1.9578285 0.47632217l0 1.1014938l-10.235657 0l0 -1.1014938c0.9846382 0 1.6715965 -0.06615448 2.0608711 -0.19846725c0.3892746 -0.12569809 0.6755066 -0.2977028 0.858696 -0.5160141c0.16028976 -0.1786232 0.24043274 -0.44655228 0.24043274 -0.80379486c0 -0.79387283 -0.1946373 -1.5976677 -0.5839119 -2.4113846l-7.0413055 -15.063702l-7.659565 13.753815c-0.7556534 1.3694267 -1.1334801 2.4411545 -1.1334801 3.2151794c0 0.5755539 0.25569916 1.0551834 0.7671013 1.4388885c0.51903534 0.39031982 1.2937698 0.58547974 2.3242035 0.58547974l0.72130585 0l0 1.1014938z" fill-rule="evenodd"/><path fill="#000000" d="m35.124943 23.512867c1.0318909 0 1.9100761 0.35582733 2.6345482 1.067482c0.72662735 0.71165466 1.0899391 1.5739765 1.0899391 2.5869637c0 1.0065746 -0.36331177 1.8678265 -1.0899391 2.5837555c-0.72447205 0.7137928 -1.6026573 1.0706902 -2.6345482 1.0706902c-1.0318947 0 -1.9111519 -0.35903358 -2.6377754 -1.0771008c-0.72447586 -0.71806717 -1.0867119 -1.5771809 -1.0867119 -2.577345c0 -1.0065765 0.36223602 -1.8667603 1.0867119 -2.580553c0.72662354 -0.71592903 1.6058807 -1.0738926 2.6377754 -1.0738926zm0.009674072 -0.81744194c-1.2640686 0 -2.337883 0.43810654 -3.2214413 1.3143177c-0.8835583 0.87407494 -1.3253365 1.9265976 -1.3253365 3.15757c0 1.2245598 0.44177818 2.2749443 1.3253365 3.1511574c0.8835583 0.87407494 1.9573727 1.3111115 3.2214413 1.3111115c1.2511673 0 2.3196068 -0.4359684 3.2053146 -1.3079052c0.88785934 -0.8719387 1.3317871 -1.9233932 1.3317871 -3.1543636c0 -1.2373829 -0.44392776 -2.2920437 -1.3317871 -3.1639805c-0.88570786 -0.8719387 -1.9541473 -1.3079071 -3.2053146 -1.3079071z" fill-rule="evenodd"/><path stroke="#000000" stroke-width="1.0" stroke-linejoin="round" stroke-linecap="butt" d="m35.124943 23.512867c1.0318909 0 1.9100761 0.35582733 2.6345482 1.067482c0.72662735 0.71165466 1.0899391 1.5739765 1.0899391 2.5869637c0 1.0065746 -0.36331177 1.8678265 -1.0899391 2.5837555c-0.72447205 0.7137928 -1.6026573 1.0706902 -2.6345482 1.0706902c-1.0318947 0 -1.9111519 -0.35903358 -2.6377754 -1.0771008c-0.72447586 -0.71806717 -1.0867119 -1.5771809 -1.0867119 -2.577345c0 -1.0065765 0.36223602 -1.8667603 1.0867119 -2.580553c0.72662354 -0.71592903 1.6058807 -1.0738926 2.6377754 -1.0738926zm0.009674072 -0.81744194c-1.2640686 0 -2.337883 0.43810654 -3.2214413 1.3143177c-0.8835583 0.87407494 -1.3253365 1.9265976 -1.3253365 3.15757c0 1.2245598 0.44177818 2.2749443 1.3253365 3.1511574c0.8835583 0.87407494 1.9573727 1.3111115 3.2214413 1.3111115c1.2511673 0 2.3196068 -0.4359684 3.2053146 -1.3079052c0.88785934 -0.8719387 1.3317871 -1.9233932 1.3317871 -3.1543636c0 -1.2373829 -0.44392776 -2.2920437 -1.3317871 -3.1639805c-0.88570786 -0.8719387 -1.9541473 -1.3079071 -3.2053146 -1.3079071z" fill-rule="evenodd"/></g></svg>