<svg version="1.1" viewBox="0.0 0.0 96.0 67.1994750656168" fill="none" stroke="none" stroke-linecap="square" stroke-miterlimit="10" xmlns:xlink="http://www.w3.org/1999/xlink" xmlns="http://www.w3.org/2000/svg"><clipPath id="g60579aecfa_0_31.0"><path d="m0 0l96.0 0l0 67.19948l-96.0 0l0 -67.19948z" clip-rule="nonzero"/></clipPath><g clip-path="url(#g60579aecfa_0_31.0)"><path fill="none" d="m0 0l96.0 0l0 67.19948l-96.0 0z" fill-rule="evenodd"/><path fill="#000000" d="m45.01265 3.3844042c-0.35036469 0 -0.65693665 0.067750454 -0.91970825 0.20325112c-0.26277542 0.13550091 -0.46715546 0.20325112 -0.6131401 0.20325112c-0.058395386 0 -0.13138962 -0.0037629604 -0.21897888 -0.011291742c-0.08759308 -0.015054703 -0.16058731 -0.022583485 -0.21897888 -0.022583485c-0.17518616 0 -0.3795662 0.05269575 -0.6131439 0.15808439c-0.23357391 0.09786248 -0.46715164 0.22207141 -0.70072937 0.37262702c-0.23357773 0.14302921 -0.47688675 0.2898221 -0.7299309 0.44037724c-0.24330902 0.14302969 -0.4525566 0.24841833 -0.62773895 0.3161683c-0.7007332 0.31616879 -1.4695892 0.6097536 -2.3065758 0.88075495c-0.82725143 0.27100134 -1.4890556 0.56458664 -1.9854088 0.88075495c-0.23357773 0.11291742 -0.38929367 0.27100134 -0.46715164 0.4742527c-0.06812668 0.20325089 -0.23357773 0.38391876 -0.49635315 0.5420027c-0.81752014 0.4968362 -1.6350403 0.9823804 -2.4525642 1.4566331c-0.81751823 0.4742527 -1.6350403 1.0049639 -2.4525604 1.5921335c-0.8759155 0.6097536 -1.6739712 1.2044525 -2.3941689 1.7840929c-0.71046257 0.5721159 -1.4306602 1.1517563 -2.1605892 1.7389269c-0.40876007 0.31616783 -0.8418522 0.6285734 -1.2992744 0.93721294c-0.44769096 0.30111408 -0.78832436 0.57587814 -1.0219002 0.82429695c-0.08759308 0.11291695 -0.18491745 0.30487633 -0.2919731 0.57587814c-0.09732437 0.27100182 -0.21897888 0.4968357 -0.36496353 0.6775036c-0.14598656 0.20325089 -0.3309021 0.39144707 -0.5547466 0.56458664c-0.21411324 0.16561317 -0.3503666 0.32745934 -0.40876007 0.4855442c-0.17518425 0.27100182 -0.27737427 0.5156555 -0.30657005 0.7339611c-0.029197693 0.2107811 -0.14598656 0.37262726 -0.3503666 0.4855442c-0.029197693 0.022584915 -0.04379654 0.06775093 -0.04379654 0.13550186c0 0.045166016 0.0048675537 0.10915375 0.014598846 0.19195938c0.019464493 0.075279236 0.029197693 0.13549995 0.029197693 0.18066788l0 0.03387451c-0.2919712 0.54200363 -0.52554893 1.1254101 -0.7007313 1.7502174c-0.17518425 0.61728287 -0.3211689 1.2609081 -0.43795776 1.9308872c-0.116788864 0.66244507 -0.21411324 1.3286572 -0.2919731 1.9986343c-0.06812668 0.662447 -0.14598465 1.2985497 -0.23357582 1.9083023c-0.029197693 0.24841881 -0.08759308 0.5081291 -0.17518425 0.779129c-0.08759117 0.27100182 -0.1313858 0.5081291 -0.1313858 0.71138c0 0.2484169 0.034061432 0.5420017 0.10219002 0.8807545c0.07785797 0.33875275 0.1508503 0.68503 0.21897888 1.0388393c0.07785797 0.34627724 0.1508503 0.6662121 0.21897697 0.959795c0.07785988 0.29358673 0.116788864 0.5194206 0.116788864 0.6775055c0 0.112918854 0.048662186 0.21454239 0.14598656 0.30487823c0.107055664 0.09033203 0.1605835 0.15808105 0.1605835 0.20325089c0.23357773 1.0840034 0.46715546 2.1077843 0.7007332 3.07135c0.23357773 0.956028 0.65693665 1.6937561 1.2700768 2.2131767c0.3503666 0.31616974 0.65693665 0.6850319 0.91971016 1.1065903c0.26277542 0.41402817 0.5109501 0.7226715 0.7445278 0.9259224c0.23357773 0.20325089 0.4525566 0.32369232 0.65693665 0.36133575c0.20438004 0.030109406 0.40876007 0.09033203 0.6131401 0.18066788c0.058395386 0 0.116788864 0.06774902 0.17518425 0.20325089c0.05839348 0.13549805 0.116788864 0.2258339 0.17518234 0.2709999c0.78832436 0.42908478 1.6837044 0.80171204 2.68614 1.1178818c1.0121689 0.31616974 1.868618 0.62104416 2.5693512 0.9146309c0.5839424 0.2484169 1.3284702 0.42908478 2.2335835 0.5419998c0.9051132 0.112918854 1.8248215 0.16937637 2.7591324 0.16937637c0.9927025 0 1.8248215 -0.06774902 2.496357 -0.20325089c0.5839424 -0.13549805 1.2116814 -0.22206879 1.8832169 -0.2597084c0.6715355 -0.030109406 1.240879 -0.112918854 1.7080345 -0.2484169c0.14598846 -0.06775284 0.282238 -0.17690277 0.40876007 -0.32746124c0.13625336 -0.14302826 0.27737427 -0.21454239 0.42335892 -0.21454239c0.058395386 0 0.12165451 0.0037651062 0.18978119 0.011291504c0.077861786 0.01505661 0.14598846 0.022583008 0.20438004 0.022583008c0.14598846 0 0.22384644 -0.071517944 0.23357773 -0.21454239c0.0194664 -0.15055847 0.08759308 -0.2484169 0.20438004 -0.29358673c0.3503685 -0.15808105 0.6618042 -0.252182 0.9343109 -0.2822914c0.282238 -0.037639618 0.510952 -0.112918854 0.68613434 -0.2258339c0.2919693 -0.2258339 0.5012169 -0.4290886 0.62773895 -0.60975266c0.13625336 -0.18066788 0.36496353 -0.39521408 0.68613434 -0.643631c0.20438004 -0.18066788 0.43795776 -0.32746124 0.70072937 -0.44037628c0.26277542 -0.112918854 0.46715546 -0.2258339 0.6131401 -0.33875275c0.43795776 -0.40650177 0.78832626 -0.85816956 1.0510979 -1.3550072c0.26277542 -0.49683762 0.55474854 -0.8807564 0.8759155 -1.1517563l2.9781113 -2.540638c0.43795776 -0.38391876 0.86618423 -0.7452545 1.2846756 -1.0840073c0.42822647 -0.33875275 0.7591286 -0.733963 0.9927063 -1.1856308l-0.30657196 0c-0.40876007 0 -0.75912476 0.06398392 -1.0510979 0.19195938c-0.2919731 0.12044144 -0.549881 0.2785263 -0.7737236 0.4742508c-0.21411514 0.18819427 -0.41849518 0.38391876 -0.6131401 0.58716965c-0.18491745 0.2032547 -0.36496735 0.37262726 -0.5401497 0.5081291c-0.23357773 0.18066788 -0.50608444 0.33875275 -0.81752014 0.4742546c-0.3017044 0.13549805 -0.56934357 0.31616592 -0.8029213 0.5419998c-0.23357773 0.22583771 -0.40389633 0.4930725 -0.510952 0.80171585c-0.09732437 0.3011093 -0.26277542 0.5419998 -0.49635315 0.7226677c-0.1368599 0.105861664 -0.3335991 0.15879059 -0.5902138 0.15879059c-0.017108917 0 -0.03448105 -2.3651123E-4 -0.052124023 -7.05719E-4c-0.038928986 -0.0021476746 -0.0765686 -0.0032234192 -0.11291504 -0.0032234192c-0.21808243 0 -0.3896904 0.038715363 -0.5148239 0.11614227c-0.40876007 0.18066788 -0.7250633 0.42908478 -0.94890594 0.7452545c-0.21411514 0.31616592 -0.4525566 0.56458664 -0.71533203 0.7452545c-0.14598465 0.11291504 -0.35036469 0.20325089 -0.6131401 0.2709999c-0.26277542 0.06774902 -0.49635315 0.14679337 -0.7007332 0.2371254c-0.525547 0.24842072 -1.0073013 0.4516716 -1.4452591 0.60975266c-0.43795776 0.15808487 -0.9051132 0.28229523 -1.4014626 0.37262726c-0.49635315 0.090335846 -1.0510979 0.15431976 -1.664238 0.19195938c-0.6131439 0.030109406 -1.3576698 0.04516983 -2.2335854 0.04516983c-0.6715355 0 -1.3236046 -0.015060425 -1.9562111 -0.04516983c-0.6228714 -0.037639618 -1.0948944 -0.09033203 -1.4160614 -0.15808105c-0.14598465 -0.04516983 -0.43795776 -0.2032547 -0.8759155 -0.4742546c-0.43795776 -0.2709999 -0.91971207 -0.5307121 -1.4452591 -0.779129c-0.49635315 -0.2258339 -0.98783875 -0.40650177 -1.4744568 -0.54200363c-0.47688866 -0.13550186 -0.84671783 -0.29358292 -1.1094933 -0.4742508c-0.6423378 -0.40650177 -1.1094913 -0.81677246 -1.4014645 -1.2308006c-0.2919712 -0.42155838 -0.5109501 -0.81676865 -0.65693665 -1.1856308c-0.14598465 -0.37639236 -0.2725067 -0.7038536 -0.37956238 -0.9823799c-0.09732437 -0.28606033 -0.26277542 -0.5081291 -0.49635124 -0.666214c-0.029197693 0 -0.04379654 -0.03387451 -0.04379654 -0.101623535c0 -0.045166016 0.0048656464 -0.09410095 0.014598846 -0.14679337c0.019464493 -0.060222626 0.029197693 -0.11291504 0.029197693 -0.15808487l0 -0.06774902c-0.23357773 -0.42908478 -0.40876007 -0.9033394 -0.52554893 -1.4227562c-0.116788864 -0.5194206 -0.20438004 -1.0538979 -0.26277542 -1.6034279c-0.05839348 -0.55706024 -0.09732437 -1.1178799 -0.116788864 -1.6824665c-0.0097332 -0.56458664 -0.029197693 -1.1178818 -0.05839348 -1.6598835c-0.029197693 -0.31616974 -0.09732437 -0.6473942 -0.20438004 -0.9936733c-0.09732437 -0.35380936 -0.14598656 -0.6549206 -0.14598656 -0.9033375c0 -0.31616783 0.116788864 -0.61351967 0.3503666 -0.892046c0.23357773 -0.28606033 0.35036469 -0.62104607 0.35036469 -1.0049648c0 -0.2258339 -0.014596939 -0.4403782 -0.043794632 -0.6436291c-0.029197693 -0.20325089 -0.04379654 -0.38391876 -0.04379654 -0.5420017c0 -0.36133575 0.14598656 -0.6662121 0.43795776 -0.9146309c0.2919712 -0.2484169 0.4817543 -0.4629612 0.5693455 -0.6436291c0.17518234 -0.38391876 0.3211689 -0.79418373 0.43795776 -1.2307968c0.116788864 -0.4441414 0.18978119 -0.71138 0.21897888 -0.80171394c0.2627735 -0.6775036 0.4720211 -1.189394 0.62773895 -1.535675c0.16545105 -0.35380554 0.29683685 -0.62104416 0.39416122 -0.80171204c0.107055664 -0.18066788 0.20438004 -0.30863953 0.2919712 -0.38391876c0.08759117 -0.08280563 0.18978119 -0.19195938 0.30657005 -0.3274603c0.116788864 -0.11291695 0.1800499 -0.24088955 0.1897831 -0.38391876c0.019464493 -0.15055561 0.072992325 -0.27100182 0.1605835 -0.36133575c0.08759117 -0.11291695 0.19464874 -0.19572163 0.3211689 -0.24841785c0.13625336 -0.060221672 0.24817657 -0.14679241 0.33576775 -0.25970936c0.3211689 -0.40650272 0.5839424 -0.71514225 0.78832245 -0.9259224c0.20438194 -0.21830559 0.4817543 -0.4968357 0.8321209 -0.8355875c0.17518425 -0.18066788 0.34063148 -0.40650177 0.49635124 -0.6775036c0.16545105 -0.27100182 0.33576584 -0.4742527 0.510952 -0.6097536c0.14598465 -0.11291695 0.37956238 -0.21454239 0.70072937 -0.30487633c0.3211708 -0.09033394 0.62773895 -0.23712635 0.91971207 -0.44037724c0.49635315 -0.3387518 0.94890976 -0.70008755 1.3576698 -1.0840063c0.40876007 -0.38391876 0.81752014 -0.70008755 1.2262802 -0.9485054c0.49634933 -0.27100086 1.036499 -0.45543194 1.6204414 -0.5532942c0.5839424 -0.10538864 1.1678886 -0.15808439 1.751831 -0.15808439c1.751831 0 3.1873589 0.13173771 4.3065834 0.39521074c1.1289558 0.25594616 2.1021957 0.5382395 2.919716 0.846879c0.81752014 0.30111408 1.5523186 0.5834074 2.2043877 0.84687996c0.6618004 0.2559471 1.3722649 0.38391876 2.1313934 0.38391876c0.20438004 0 0.4136238 -0.060221672 0.62773895 -0.18066788c0.22384262 -0.12797165 0.4525566 -0.28229332 0.6861305 -0.46296024c0.23357773 -0.18066788 0.472023 -0.37262726 0.71533203 -0.57587814c0.25304413 -0.20325184 0.49635315 -0.38391876 0.7299309 -0.54200363c0.11678696 -0.06774998 0.27737045 -0.11291695 0.4817505 -0.13550091c0.20438004 -0.022583008 0.36496735 -0.06774998 0.4817543 -0.13549995c0.14598465 -0.09033394 0.3114357 -0.21454334 0.49635315 -0.37262726c0.19464874 -0.15808439 0.37956238 -0.3199315 0.5547447 -0.48554468c0.17518234 -0.17313862 0.3211708 -0.34251451 0.43795776 -0.5081277c0.11679077 -0.1731391 0.17518234 -0.3048768 0.17518234 -0.39521027c-0.05839157 -0.11291742 -0.19951248 -0.20701408 -0.42335892 -0.28229332c-0.21411133 -0.08280516 -0.46715546 -0.14679241 -0.75912476 -0.19195938c-0.2919731 -0.04516697 -0.5790787 -0.09033394 -0.8613167 -0.13550091c-0.2725067 -0.04516697 -0.46715546 -0.09033394 -0.5839424 -0.13550043c-1.0510979 -0.38391876 -1.8345566 -0.6549206 -2.3503723 -0.8130045c-0.50608444 -0.15808439 -0.8759155 -0.25218105 -1.1094933 -0.28229332c-0.23357773 -0.037638187 -0.40876007 -0.05645895 -0.52555084 -0.05645895c-0.11678696 0 -0.30656815 -0.045166492 -0.56934357 -0.13550043c-0.26277542 -0.067750454 -0.59854126 -0.1693759 -1.0073013 -0.3048768c-0.40876007 -0.13550091 -0.85645294 -0.2597096 -1.343071 -0.37262702c-0.47688675 -0.112917185 -0.9635048 -0.21454287 -1.459858 -0.30487657c-0.49635315 -0.09033394 -0.94890976 -0.13550091 -1.3576698 -0.13550091z" fill-rule="evenodd"/><path stroke="#000000" stroke-width="1.0" stroke-linejoin="round" stroke-linecap="butt" d="m45.01265 3.3844042c-0.35036469 0 -0.65693665 0.067750454 -0.91970825 0.20325112c-0.26277542 0.13550091 -0.46715546 0.20325112 -0.6131401 0.20325112c-0.058395386 0 -0.13138962 -0.0037629604 -0.21897888 -0.011291742c-0.08759308 -0.015054703 -0.16058731 -0.022583485 -0.21897888 -0.022583485c-0.17518616 0 -0.3795662 0.05269575 -0.6131439 0.15808439c-0.23357391 0.09786248 -0.46715164 0.22207141 -0.70072937 0.37262702c-0.23357773 0.14302921 -0.47688675 0.2898221 -0.7299309 0.44037724c-0.24330902 0.14302969 -0.4525566 0.24841833 -0.62773895 0.3161683c-0.7007332 0.31616879 -1.4695892 0.6097536 -2.3065758 0.88075495c-0.82725143 0.27100134 -1.4890556 0.56458664 -1.9854088 0.88075495c-0.23357773 0.11291742 -0.38929367 0.27100134 -0.46715164 0.4742527c-0.06812668 0.20325089 -0.23357773 0.38391876 -0.49635315 0.5420027c-0.81752014 0.4968362 -1.6350403 0.9823804 -2.4525642 1.4566331c-0.81751823 0.4742527 -1.6350403 1.0049639 -2.4525604 1.5921335c-0.8759155 0.6097536 -1.6739712 1.2044525 -2.3941689 1.7840929c-0.71046257 0.5721159 -1.4306602 1.1517563 -2.1605892 1.7389269c-0.40876007 0.31616783 -0.8418522 0.6285734 -1.2992744 0.93721294c-0.44769096 0.30111408 -0.78832436 0.57587814 -1.0219002 0.82429695c-0.08759308 0.11291695 -0.18491745 0.30487633 -0.2919731 0.57587814c-0.09732437 0.27100182 -0.21897888 0.4968357 -0.36496353 0.6775036c-0.14598656 0.20325089 -0.3309021 0.39144707 -0.5547466 0.56458664c-0.21411324 0.16561317 -0.3503666 0.32745934 -0.40876007 0.4855442c-0.17518425 0.27100182 -0.27737427 0.5156555 -0.30657005 0.7339611c-0.029197693 0.2107811 -0.14598656 0.37262726 -0.3503666 0.4855442c-0.029197693 0.022584915 -0.04379654 0.06775093 -0.04379654 0.13550186c0 0.045166016 0.0048675537 0.10915375 0.014598846 0.19195938c0.019464493 0.075279236 0.029197693 0.13549995 0.029197693 0.18066788l0 0.03387451c-0.2919712 0.54200363 -0.52554893 1.1254101 -0.7007313 1.7502174c-0.17518425 0.61728287 -0.3211689 1.2609081 -0.43795776 1.9308872c-0.116788864 0.66244507 -0.21411324 1.3286572 -0.2919731 1.9986343c-0.06812668 0.662447 -0.14598465 1.2985497 -0.23357582 1.9083023c-0.029197693 0.24841881 -0.08759308 0.5081291 -0.17518425 0.779129c-0.08759117 0.27100182 -0.1313858 0.5081291 -0.1313858 0.71138c0 0.2484169 0.034061432 0.5420017 0.10219002 0.8807545c0.07785797 0.33875275 0.1508503 0.68503 0.21897888 1.0388393c0.07785797 0.34627724 0.1508503 0.6662121 0.21897697 0.959795c0.07785988 0.29358673 0.116788864 0.5194206 0.116788864 0.6775055c0 0.112918854 0.048662186 0.21454239 0.14598656 0.30487823c0.107055664 0.09033203 0.1605835 0.15808105 0.1605835 0.20325089c0.23357773 1.0840034 0.46715546 2.1077843 0.7007332 3.07135c0.23357773 0.956028 0.65693665 1.6937561 1.2700768 2.2131767c0.3503666 0.31616974 0.65693665 0.6850319 0.91971016 1.1065903c0.26277542 0.41402817 0.5109501 0.7226715 0.7445278 0.9259224c0.23357773 0.20325089 0.4525566 0.32369232 0.65693665 0.36133575c0.20438004 0.030109406 0.40876007 0.09033203 0.6131401 0.18066788c0.058395386 0 0.116788864 0.06774902 0.17518425 0.20325089c0.05839348 0.13549805 0.116788864 0.2258339 0.17518234 0.2709999c0.78832436 0.42908478 1.6837044 0.80171204 2.68614 1.1178818c1.0121689 0.31616974 1.868618 0.62104416 2.5693512 0.9146309c0.5839424 0.2484169 1.3284702 0.42908478 2.2335835 0.5419998c0.9051132 0.112918854 1.8248215 0.16937637 2.7591324 0.16937637c0.9927025 0 1.8248215 -0.06774902 2.496357 -0.20325089c0.5839424 -0.13549805 1.2116814 -0.22206879 1.8832169 -0.2597084c0.6715355 -0.030109406 1.240879 -0.112918854 1.7080345 -0.2484169c0.14598846 -0.06775284 0.282238 -0.17690277 0.40876007 -0.32746124c0.13625336 -0.14302826 0.27737427 -0.21454239 0.42335892 -0.21454239c0.058395386 0 0.12165451 0.0037651062 0.18978119 0.011291504c0.077861786 0.01505661 0.14598846 0.022583008 0.20438004 0.022583008c0.14598846 0 0.22384644 -0.071517944 0.23357773 -0.21454239c0.0194664 -0.15055847 0.08759308 -0.2484169 0.20438004 -0.29358673c0.3503685 -0.15808105 0.6618042 -0.252182 0.9343109 -0.2822914c0.282238 -0.037639618 0.510952 -0.112918854 0.68613434 -0.2258339c0.2919693 -0.2258339 0.5012169 -0.4290886 0.62773895 -0.60975266c0.13625336 -0.18066788 0.36496353 -0.39521408 0.68613434 -0.643631c0.20438004 -0.18066788 0.43795776 -0.32746124 0.70072937 -0.44037628c0.26277542 -0.112918854 0.46715546 -0.2258339 0.6131401 -0.33875275c0.43795776 -0.40650177 0.78832626 -0.85816956 1.0510979 -1.3550072c0.26277542 -0.49683762 0.55474854 -0.8807564 0.8759155 -1.1517563l2.9781113 -2.540638c0.43795776 -0.38391876 0.86618423 -0.7452545 1.2846756 -1.0840073c0.42822647 -0.33875275 0.7591286 -0.733963 0.9927063 -1.1856308l-0.30657196 0c-0.40876007 0 -0.75912476 0.06398392 -1.0510979 0.19195938c-0.2919731 0.12044144 -0.549881 0.2785263 -0.7737236 0.4742508c-0.21411514 0.18819427 -0.41849518 0.38391876 -0.6131401 0.58716965c-0.18491745 0.2032547 -0.36496735 0.37262726 -0.5401497 0.5081291c-0.23357773 0.18066788 -0.50608444 0.33875275 -0.81752014 0.4742546c-0.3017044 0.13549805 -0.56934357 0.31616592 -0.8029213 0.5419998c-0.23357773 0.22583771 -0.40389633 0.4930725 -0.510952 0.80171585c-0.09732437 0.3011093 -0.26277542 0.5419998 -0.49635315 0.7226677c-0.1368599 0.105861664 -0.3335991 0.15879059 -0.5902138 0.15879059c-0.017108917 0 -0.03448105 -2.3651123E-4 -0.052124023 -7.05719E-4c-0.038928986 -0.0021476746 -0.0765686 -0.0032234192 -0.11291504 -0.0032234192c-0.21808243 0 -0.3896904 0.038715363 -0.5148239 0.11614227c-0.40876007 0.18066788 -0.7250633 0.42908478 -0.94890594 0.7452545c-0.21411514 0.31616592 -0.4525566 0.56458664 -0.71533203 0.7452545c-0.14598465 0.11291504 -0.35036469 0.20325089 -0.6131401 0.2709999c-0.26277542 0.06774902 -0.49635315 0.14679337 -0.7007332 0.2371254c-0.525547 0.24842072 -1.0073013 0.4516716 -1.4452591 0.60975266c-0.43795776 0.15808487 -0.9051132 0.28229523 -1.4014626 0.37262726c-0.49635315 0.090335846 -1.0510979 0.15431976 -1.664238 0.19195938c-0.6131439 0.030109406 -1.3576698 0.04516983 -2.2335854 0.04516983c-0.6715355 0 -1.3236046 -0.015060425 -1.9562111 -0.04516983c-0.6228714 -0.037639618 -1.0948944 -0.09033203 -1.4160614 -0.15808105c-0.14598465 -0.04516983 -0.43795776 -0.2032547 -0.8759155 -0.4742546c-0.43795776 -0.2709999 -0.91971207 -0.5307121 -1.4452591 -0.779129c-0.49635315 -0.2258339 -0.98783875 -0.40650177 -1.4744568 -0.54200363c-0.47688866 -0.13550186 -0.84671783 -0.29358292 -1.1094933 -0.4742508c-0.6423378 -0.40650177 -1.1094913 -0.81677246 -1.4014645 -1.2308006c-0.2919712 -0.42155838 -0.5109501 -0.81676865 -0.65693665 -1.1856308c-0.14598465 -0.37639236 -0.2725067 -0.7038536 -0.37956238 -0.9823799c-0.09732437 -0.28606033 -0.26277542 -0.5081291 -0.49635124 -0.666214c-0.029197693 0 -0.04379654 -0.03387451 -0.04379654 -0.101623535c0 -0.045166016 0.0048656464 -0.09410095 0.014598846 -0.14679337c0.019464493 -0.060222626 0.029197693 -0.11291504 0.029197693 -0.15808487l0 -0.06774902c-0.23357773 -0.42908478 -0.40876007 -0.9033394 -0.52554893 -1.4227562c-0.116788864 -0.5194206 -0.20438004 -1.0538979 -0.26277542 -1.6034279c-0.05839348 -0.55706024 -0.09732437 -1.1178799 -0.116788864 -1.6824665c-0.0097332 -0.56458664 -0.029197693 -1.1178818 -0.05839348 -1.6598835c-0.029197693 -0.31616974 -0.09732437 -0.6473942 -0.20438004 -0.9936733c-0.09732437 -0.35380936 -0.14598656 -0.6549206 -0.14598656 -0.9033375c0 -0.31616783 0.116788864 -0.61351967 0.3503666 -0.892046c0.23357773 -0.28606033 0.35036469 -0.62104607 0.35036469 -1.0049648c0 -0.2258339 -0.014596939 -0.4403782 -0.043794632 -0.6436291c-0.029197693 -0.20325089 -0.04379654 -0.38391876 -0.04379654 -0.5420017c0 -0.36133575 0.14598656 -0.6662121 0.43795776 -0.9146309c0.2919712 -0.2484169 0.4817543 -0.4629612 0.5693455 -0.6436291c0.17518234 -0.38391876 0.3211689 -0.79418373 0.43795776 -1.2307968c0.116788864 -0.4441414 0.18978119 -0.71138 0.21897888 -0.80171394c0.2627735 -0.6775036 0.4720211 -1.189394 0.62773895 -1.535675c0.16545105 -0.35380554 0.29683685 -0.62104416 0.39416122 -0.80171204c0.107055664 -0.18066788 0.20438004 -0.30863953 0.2919712 -0.38391876c0.08759117 -0.08280563 0.18978119 -0.19195938 0.30657005 -0.3274603c0.116788864 -0.11291695 0.1800499 -0.24088955 0.1897831 -0.38391876c0.019464493 -0.15055561 0.072992325 -0.27100182 0.1605835 -0.36133575c0.08759117 -0.11291695 0.19464874 -0.19572163 0.3211689 -0.24841785c0.13625336 -0.060221672 0.24817657 -0.14679241 0.33576775 -0.25970936c0.3211689 -0.40650272 0.5839424 -0.71514225 0.78832245 -0.9259224c0.20438194 -0.21830559 0.4817543 -0.4968357 0.8321209 -0.8355875c0.17518425 -0.18066788 0.34063148 -0.40650177 0.49635124 -0.6775036c0.16545105 -0.27100182 0.33576584 -0.4742527 0.510952 -0.6097536c0.14598465 -0.11291695 0.37956238 -0.21454239 0.70072937 -0.30487633c0.3211708 -0.09033394 0.62773895 -0.23712635 0.91971207 -0.44037724c0.49635315 -0.3387518 0.94890976 -0.70008755 1.3576698 -1.0840063c0.40876007 -0.38391876 0.81752014 -0.70008755 1.2262802 -0.9485054c0.49634933 -0.27100086 1.036499 -0.45543194 1.6204414 -0.5532942c0.5839424 -0.10538864 1.1678886 -0.15808439 1.751831 -0.15808439c1.751831 0 3.1873589 0.13173771 4.3065834 0.39521074c1.1289558 0.25594616 2.1021957 0.5382395 2.919716 0.846879c0.81752014 0.30111408 1.5523186 0.5834074 2.2043877 0.84687996c0.6618004 0.2559471 1.3722649 0.38391876 2.1313934 0.38391876c0.20438004 0 0.4136238 -0.060221672 0.62773895 -0.18066788c0.22384262 -0.12797165 0.4525566 -0.28229332 0.6861305 -0.46296024c0.23357773 -0.18066788 0.472023 -0.37262726 0.71533203 -0.57587814c0.25304413 -0.20325184 0.49635315 -0.38391876 0.7299309 -0.54200363c0.11678696 -0.06774998 0.27737045 -0.11291695 0.4817505 -0.13550091c0.20438004 -0.022583008 0.36496735 -0.06774998 0.4817543 -0.13549995c0.14598465 -0.09033394 0.3114357 -0.21454334 0.49635315 -0.37262726c0.19464874 -0.15808439 0.37956238 -0.3199315 0.5547447 -0.48554468c0.17518234 -0.17313862 0.3211708 -0.34251451 0.43795776 -0.5081277c0.11679077 -0.1731391 0.17518234 -0.3048768 0.17518234 -0.39521027c-0.05839157 -0.11291742 -0.19951248 -0.20701408 -0.42335892 -0.28229332c-0.21411133 -0.08280516 -0.46715546 -0.14679241 -0.75912476 -0.19195938c-0.2919731 -0.04516697 -0.5790787 -0.09033394 -0.8613167 -0.13550091c-0.2725067 -0.04516697 -0.46715546 -0.09033394 -0.5839424 -0.13550043c-1.0510979 -0.38391876 -1.8345566 -0.6549206 -2.3503723 -0.8130045c-0.50608444 -0.15808439 -0.8759155 -0.25218105 -1.1094933 -0.28229332c-0.23357773 -0.037638187 -0.40876007 -0.05645895 -0.52555084 -0.05645895c-0.11678696 0 -0.30656815 -0.045166492 -0.56934357 -0.13550043c-0.26277542 -0.067750454 -0.59854126 -0.1693759 -1.0073013 -0.3048768c-0.40876007 -0.13550091 -0.85645294 -0.2597096 -1.343071 -0.37262702c-0.47688675 -0.112917185 -0.9635048 -0.21454287 -1.459858 -0.30487657c-0.49635315 -0.09033394 -0.94890976 -0.13550091 -1.3576698 -0.13550091z" fill-rule="evenodd"/><path fill="#000000" d="m42.586613 63.81496l0 -1.1014938c1.1678276 -0.238163 2.0150719 -0.5160179 2.5417404 -0.83356476c0.36637497 -0.238163 0.83579636 -0.7045593 1.4082603 -1.3991966c0.7556534 -0.9129524 1.3052177 -1.6770554 1.6486969 -2.292305l11.300438 -20.571182l-2.2326126 -4.7334557c-0.82434464 -1.7663631 -1.6448784 -2.9571686 -2.4615936 -3.5724182c-0.80908203 -0.61524963 -1.5571022 -0.92287636 -2.2440567 -0.92287636c-0.22898483 0 -0.8014488 0.1488514 -1.717392 0.44655418c-1.3052177 0.43662834 -2.3356514 0.65494347 -3.0913048 0.65494347c-1.0991325 0 -1.9654579 -0.25139427 -2.5989876 -0.754179c-0.62589264 -0.5094013 -0.93883896 -1.1808815 -0.93883896 -2.0144463c0 -0.8732586 0.43507004 -1.6472836 1.3052177 -2.322073c0.8701439 -0.67479134 1.9807243 -1.012186 3.3317375 -1.012186c1.8547859 0 3.7820778 0.67479134 5.781887 2.024372c2.0074387 1.3495789 3.6294212 3.344181 4.865944 5.983801l12.811737 27.209929c0.572464 1.2503471 0.9617386 2.01445 1.1678314 2.292305c0.54956055 0.65494156 1.0533295 1.1014938 1.5112991 1.3396568c0.4579773 0.23815918 1.1105804 0.3969345 1.9578323 0.47632217l0 1.1014938l-10.235657 0l0 -1.1014938c0.9846344 0 1.6715927 -0.066158295 2.0608673 -0.19846725c0.3892746 -0.12569809 0.6755066 -0.2977028 0.858696 -0.5160179c0.16029358 -0.17861938 0.24044037 -0.44655228 0.24044037 -0.80379486c0 -0.793869 -0.19464111 -1.5976639 -0.5839157 -2.4113808l-7.0413055 -15.063702l-7.659569 13.753815c-0.75564957 1.3694267 -1.1334763 2.4411507 -1.1334763 3.2151756c0 0.5755577 0.25569916 1.0551872 0.7671013 1.4388924c0.51903534 0.39031982 1.293766 0.58547974 2.3242035 0.58547974l0.72130203 0l0 1.1014938z" fill-rule="evenodd"/><path stroke="#000000" stroke-width="1.0" stroke-linejoin="round" stroke-linecap="butt" d="m42.586613 63.81496l0 -1.1014938c1.1678276 -0.238163 2.0150719 -0.5160179 2.5417404 -0.83356476c0.36637497 -0.238163 0.83579636 -0.7045593 1.4082603 -1.3991966c0.7556534 -0.9129524 1.3052177 -1.6770554 1.6486969 -2.292305l11.300438 -20.571182l-2.2326126 -4.7334557c-0.82434464 -1.7663631 -1.6448784 -2.9571686 -2.4615936 -3.5724182c-0.80908203 -0.61524963 -1.5571022 -0.92287636 -2.2440567 -0.92287636c-0.22898483 0 -0.8014488 0.1488514 -1.717392 0.44655418c-1.3052177 0.43662834 -2.3356514 0.65494347 -3.0913048 0.65494347c-1.0991325 0 -1.9654579 -0.25139427 -2.5989876 -0.754179c-0.62589264 -0.5094013 -0.93883896 -1.1808815 -0.93883896 -2.0144463c0 -0.8732586 0.43507004 -1.6472836 1.3052177 -2.322073c0.8701439 -0.67479134 1.9807243 -1.012186 3.3317375 -1.012186c1.8547859 0 3.7820778 0.67479134 5.781887 2.024372c2.0074387 1.3495789 3.6294212 3.344181 4.865944 5.983801l12.811737 27.209929c0.572464 1.2503471 0.9617386 2.01445 1.1678314 2.292305c0.54956055 0.65494156 1.0533295 1.1014938 1.5112991 1.3396568c0.4579773 0.23815918 1.1105804 0.3969345 1.9578323 0.47632217l0 1.1014938l-10.235657 0l0 -1.1014938c0.9846344 0 1.6715927 -0.066158295 2.0608673 -0.19846725c0.3892746 -0.12569809 0.6755066 -0.2977028 0.858696 -0.5160179c0.16029358 -0.17861938 0.24044037 -0.44655228 0.24044037 -0.80379486c0 -0.793869 -0.19464111 -1.5976639 -0.5839157 -2.4113808l-7.0413055 -15.063702l-7.659569 13.753815c-0.75564957 1.3694267 -1.1334763 2.4411507 -1.1334763 3.2151756c0 0.5755577 0.25569916 1.0551872 0.7671013 1.4388924c0.51903534 0.39031982 1.293766 0.58547974 2.3242035 0.58547974l0.72130203 0l0 1.1014938z" fill-rule="evenodd"/><path fill="#000000" d="m47.24174 23.049612c1.0318909 0 1.9100761 0.35582733 2.6345482 1.067482c0.72662354 0.71165466 1.0899391 1.5739765 1.0899391 2.5869637c0 1.0065746 -0.36331558 1.8678265 -1.0899391 2.5837574c-0.72447205 0.7137909 -1.6026573 1.0706882 -2.6345482 1.0706882c-1.0318947 0 -1.9111519 -0.35903358 -2.6377754 -1.0771008c-0.72447586 -0.71806526 -1.0867119 -1.5771809 -1.0867119 -2.577345c0 -1.0065765 0.36223602 -1.8667603 1.0867119 -2.5805511c0.72662354 -0.71592903 1.6058807 -1.0738945 2.6377754 -1.0738945zm0.009674072 -0.81744194c-1.2640686 0 -2.337883 0.43810654 -3.2214394 1.3143177c-0.8835602 0.87407494 -1.3253403 1.9265976 -1.3253403 3.15757c0 1.2245598 0.4417801 2.2749443 1.3253403 3.1511574c0.88355637 0.87407494 1.9573708 1.3111134 3.2214394 1.3111134c1.2511673 0 2.3196068 -0.4359703 3.2053146 -1.3079071c0.88785934 -0.8719387 1.3317871 -1.9233932 1.3317871 -3.1543636c0 -1.2373829 -0.44392776 -2.2920437 -1.3317871 -3.1639805c-0.88570786 -0.8719387 -1.9541473 -1.3079071 -3.2053146 -1.3079071z" fill-rule="evenodd"/><path stroke="#000000" stroke-width="1.0" stroke-linejoin="round" stroke-linecap="butt" d="m47.24174 23.049612c1.0318909 0 1.9100761 0.35582733 2.6345482 1.067482c0.72662354 0.71165466 1.0899391 1.5739765 1.0899391 2.5869637c0 1.0065746 -0.36331558 1.8678265 -1.0899391 2.5837574c-0.72447205 0.7137909 -1.6026573 1.0706882 -2.6345482 1.0706882c-1.0318947 0 -1.9111519 -0.35903358 -2.6377754 -1.0771008c-0.72447586 -0.71806526 -1.0867119 -1.5771809 -1.0867119 -2.577345c0 -1.0065765 0.36223602 -1.8667603 1.0867119 -2.5805511c0.72662354 -0.71592903 1.6058807 -1.0738945 2.6377754 -1.0738945zm0.009674072 -0.81744194c-1.2640686 0 -2.337883 0.43810654 -3.2214394 1.3143177c-0.8835602 0.87407494 -1.3253403 1.9265976 -1.3253403 3.15757c0 1.2245598 0.4417801 2.2749443 1.3253403 3.1511574c0.88355637 0.87407494 1.9573708 1.3111134 3.2214394 1.3111134c1.2511673 0 2.3196068 -0.4359703 3.2053146 -1.3079071c0.88785934 -0.8719387 1.3317871 -1.9233932 1.3317871 -3.1543636c0 -1.2373829 -0.44392776 -2.2920437 -1.3317871 -3.1639805c-0.88570786 -0.8719387 -1.9541473 -1.3079071 -3.2053146 -1.3079071z" fill-rule="evenodd"/></g></svg>